<?xml version="1.0" encoding="UTF-8"?>
<svg version="1.1" xmlns="http://www.w3.org/2000/svg" width="1080" height="1080">
<path d="M0 0 C0 1.32 0 2.64 0 4 C0.99 4.33 1.98 4.66 3 5 C3.01981934 5.80743652 3.03963867 6.61487305 3.06005859 7.44677734 C3.15505899 11.08985875 3.26483912 14.73234686 3.375 18.375 C3.42140625 20.28152344 3.42140625 20.28152344 3.46875 22.2265625 C3.50742187 23.43828125 3.54609375 24.65 3.5859375 25.8984375 C3.63306885 27.57945557 3.63306885 27.57945557 3.68115234 29.29443359 C3.73411203 32.14710412 3.73411203 32.14710412 6 34 C6.125 37.625 6.125 37.625 6 41 C6.66 41 7.32 41 8 41 C9.1577506 44.47325181 9.06866652 47.36067448 9 51 C9.66 51 10.32 51 11 51 C11.33 54.63 11.66 58.26 12 62 C12.598125 61.401875 13.19625 60.80375 13.8125 60.1875 C17.65668967 57.54933062 21.15600512 56.78059248 25.671875 55.80859375 C26.44015625 55.54175781 27.2084375 55.27492187 28 55 C28.33 54.01 28.66 53.02 29 52 C31.19972003 50.62296347 33.30787231 49.45203199 35.625 48.3125 C36.22957031 47.99216797 36.83414062 47.67183594 37.45703125 47.34179688 C41.79047651 45.17507424 45.1883328 44.58185764 50 45 C51 46 51 46 51.09765625 48.28515625 C51.08025391 49.65994141 51.08025391 49.65994141 51.0625 51.0625 C51.05347656 51.98160156 51.04445313 52.90070313 51.03515625 53.84765625 C51.01775391 54.91306641 51.01775391 54.91306641 51 56 C50.01 56 49.02 56 48 56 C47.67 57.65 47.34 59.3 47 61 C46.34 61 45.68 61 45 61 C44.67 62.32 44.34 63.64 44 65 C43.34 65 42.68 65 42 65 C41.67 66.65 41.34 68.3 41 70 C40.34 70 39.68 70 39 70 C38.67 71.98 38.34 73.96 38 76 C37.34 76 36.68 76 36 76 C36.0825 76.7425 36.165 77.485 36.25 78.25 C36 81 36 81 34.125 83.3125 C32 85 32 85 30 85 C30 86.32 30 87.64 30 89 C29.34 89.33 28.68 89.66 28 90 C27.31527335 91.88764903 27.31527335 91.88764903 26.875 94.0625 C26.70742188 94.79597656 26.53984375 95.52945313 26.3671875 96.28515625 C26.24601562 96.85105469 26.12484375 97.41695313 26 98 C25.34 98 24.68 98 24 98 C24 100.31 24 102.62 24 105 C22.515 105.495 22.515 105.495 21 106 C21 208.63 21 311.26 21 417 C22.32 417 23.64 417 25 417 C25.33 415.68 25.66 414.36 26 413 C26.66 413 27.32 413 28 413 C28.08636719 412.38253906 28.17273438 411.76507813 28.26171875 411.12890625 C29 409 29 409 30.70703125 407.83984375 C31.40183594 407.54207031 32.09664062 407.24429687 32.8125 406.9375 C35.86434759 405.55625234 38.33822605 404.04751843 41 402 C41.66 402 42.32 402 43 402 C43 401.34 43 400.68 43 400 C43.66 399.67 44.32 399.34 45 399 C46.13350534 396.98330173 46.13350534 396.98330173 47 395 C47.66 395 48.32 395 49 395 C49 394.34 49 393.68 49 393 C49.99 393 50.98 393 52 393 C52.33 392.01 52.66 391.02 53 390 C53.66 390 54.32 390 55 390 C55 389.34 55 388.68 55 388 C55.99 388 56.98 388 58 388 C58 387.01 58 386.02 58 385 C58.99 385 59.98 385 61 385 C61.33 384.01 61.66 383.02 62 382 C62.66 382 63.32 382 64 382 C64 381.34 64 380.68 64 380 C65.3125 378.375 65.3125 378.375 67 377 C67.99 377 68.98 377 70 377 C70 376.01 70 375.02 70 374 C71.3125 372.3125 71.3125 372.3125 73 371 C73.99 371 74.98 371 76 371 C76 370.34 76 369.68 76 369 C76.99 369 77.98 369 79 369 C79 368.34 79 367.68 79 367 C80.875 364.875 80.875 364.875 83 363 C83.66 363 84.32 363 85 363 C85 362.34 85 361.68 85 361 C85.99 361 86.98 361 88 361 C88 360.01 88 359.02 88 358 C88.99 358 89.98 358 91 358 C91 357.34 91 356.68 91 356 C91.99 356 92.98 356 94 356 C94.33 354.68 94.66 353.36 95 352 C95.66 352 96.32 352 97 352 C97 351.34 97 350.68 97 350 C97.99 350 98.98 350 100 350 C100.33 349.01 100.66 348.02 101 347 C101.66 347 102.32 347 103 347 C103 346.34 103 345.68 103 345 C104.875 342.875 104.875 342.875 107 341 C107.66 341 108.32 341 109 341 C109 340.34 109 339.68 109 339 C109.99 339 110.98 339 112 339 C112.33 338.01 112.66 337.02 113 336 C113.66 336 114.32 336 115 336 C115 335.34 115 334.68 115 334 C115.99 334 116.98 334 118 334 C118 333.01 118 332.02 118 331 C118.99 331 119.98 331 121 331 C121 330.34 121 329.68 121 329 C121.99 329 122.98 329 124 329 C124 328.01 124 327.02 124 326 C125.64333504 324.96210419 127.31243867 323.96432076 129 323 C129.66 322.01 130.32 321.02 131 320 C131.66 320 132.32 320 133 320 C133.33 319.01 133.66 318.02 134 317 C134.66 317 135.32 317 136 317 C136 316.34 136 315.68 136 315 C136.99 315 137.98 315 139 315 C139.33 314.01 139.66 313.02 140 312 C140.66 312 141.32 312 142 312 C142.33 311.01 142.66 310.02 143 309 C143.66 309 144.32 309 145 309 C145 308.34 145 307.68 145 307 C145.99 307 146.98 307 148 307 C148.33 306.01 148.66 305.02 149 304 C149.66 304 150.32 304 151 304 C151 303.34 151 302.68 151 302 C151.99 302 152.98 302 154 302 C154.33 300.68 154.66 299.36 155 298 C155.66 298 156.32 298 157 298 C157 297.34 157 296.68 157 296 C157.99 296 158.98 296 160 296 C160.33 295.01 160.66 294.02 161 293 C161.66 293 162.32 293 163 293 C163 292.34 163 291.68 163 291 C164.4609375 289.4921875 164.4609375 289.4921875 166.375 287.875 C167.00148438 287.33617187 167.62796875 286.79734375 168.2734375 286.2421875 C170 285 170 285 172 285 C172 284.34 172 283.68 172 283 C172.99 283 173.98 283 175 283 C175 282.34 175 281.68 175 281 C176.875 278.875 176.875 278.875 179 277 C179.66 277 180.32 277 181 277 C181 276.34 181 275.68 181 275 C181.99 275 182.98 275 184 275 C184.33 274.01 184.66 273.02 185 272 C185.66 272 186.32 272 187 272 C187 271.34 187 270.68 187 270 C187.99 270 188.98 270 190 270 C190.33 268.68 190.66 267.36 191 266 C191.66 266 192.32 266 193 266 C193 265.34 193 264.68 193 264 C196.46153846 261 196.46153846 261 199 261 C199.33 260.01 199.66 259.02 200 258 C200.66 258 201.32 258 202 258 C202 257.01 202 256.02 202 255 C202.99 255 203.98 255 205 255 C205.33 254.01 205.66 253.02 206 252 C206.66 252 207.32 252 208 252 C208 251.34 208 250.68 208 250 C208.99 250 209.98 250 211 250 C211 249.34 211 248.68 211 248 C211.99 248 212.98 248 214 248 C214.061875 247.38125 214.12375 246.7625 214.1875 246.125 C215 244 215 244 217.5625 242.75 C218.366875 242.5025 219.17125 242.255 220 242 C220 241.01 220 240.02 220 239 C220.66 238.67 221.32 238.34 222 238 C222.33 237.01 222.66 236.02 223 235 C222.01 234.67 221.02 234.34 220 234 C220 233.01 220 232.02 220 231 C219.01 230.67 218.02 230.34 217 230 C216.814375 228.7934375 216.814375 228.7934375 216.625 227.5625 C216.41875 226.716875 216.2125 225.87125 216 225 C215.34 224.67 214.68 224.34 214 224 C212.45733849 220.7331874 211.60897353 217.55234558 211 214 C210.01 213.67 209.02 213.34 208 213 C208 212.01 208 211.02 208 210 C207.01 209.67 206.02 209.34 205 209 C205 208.01 205 207.02 205 206 C204.34 206 203.68 206 203 206 C201.64560332 203.29120665 201.93498549 200.99066732 202 198 C201.01 197.67 200.02 197.34 199 197 C199 195.68 199 194.36 199 193 C198.01 192.67 197.02 192.34 196 192 C196 191.01 196 190.02 196 189 C195.01 188.67 194.02 188.34 193 188 C193 186.68 193 185.36 193 184 C192.01 183.67 191.02 183.34 190 183 C190 181.35 190 179.7 190 178 C189.01 177.67 188.02 177.34 187 177 C187 175.68 187 174.36 187 173 C186.01 172.67 185.02 172.34 184 172 C184 171.01 184 170.02 184 169 C183.01 168.67 182.02 168.34 181 168 C181 166.68 181 165.36 181 164 C180.01 163.67 179.02 163.34 178 163 C177.6278958 161.67696283 177.29369827 160.34262065 177 159 C176.34 158.67 175.68 158.34 175 158 C174.31061419 156.34260161 173.647737 154.67411439 173 153 C172.02980103 151.33642514 171.02875929 149.69051157 170 148.0625 C167.77039555 144.43668693 166.25557939 141.08063302 165 137 C164.34 136.67 163.68 136.34 163 136 C162.66666667 134.66666667 162.33333333 133.33333333 162 132 C161.34 131.67 160.68 131.34 160 131 C160 129.68 160 128.36 160 127 C159.01 126.67 158.02 126.34 157 126 C157 124.68 157 123.36 157 122 C156.01 121.67 155.02 121.34 154 121 C154 119.02 154 117.04 154 115 C153.01 114.67 152.02 114.34 151 114 C150.6278958 112.67696283 150.29369827 111.34262065 150 110 C149.34 109.67 148.68 109.34 148 109 C148 108.01 148 107.02 148 106 C147.01 105.67 146.02 105.34 145 105 C145 104.01 145 103.02 145 102 C144.01 101.67 143.02 101.34 142 101 C142 99.35 142 97.7 142 96 C141.01 95.67 140.02 95.34 139 95 C139 93.68 139 92.36 139 91 C138.01 90.67 137.02 90.34 136 90 C136 89.34 136 88.68 136 88 C135.01 87.67 134.02 87.34 133 87 C130.2332241 84.02827774 130 83.25809375 130 79 C129.01 78.67 128.02 78.34 127 78 C127 75.69 127 73.38 127 71 C126.34 71 125.68 71 125 71 C124.67 69.35 124.34 67.7 124 66 C125.4562672 65.63743142 126.91511185 65.28520207 128.375 64.9375 C129.18710937 64.74027344 129.99921875 64.54304688 130.8359375 64.33984375 C133 64 133 64 135 65 C135 65.66 135 66.32 135 67 C135.99 67 136.98 67 138 67 C139 68 140 69 141 70 C142.97620986 71.04622875 144.9737129 72.05439935 147 73 C147 74.32 147 75.64 147 77 C147.99 77 148.98 77 150 77 C150 77.66 150 78.32 150 79 C150.61875 79.309375 151.2375 79.61875 151.875 79.9375 C153.25 80.625 154.625 81.3125 156 82 C156 82.99 156 83.98 156 85 C156.99 85.33 157.98 85.66 159 86 C159 87.65 159 89.3 159 91 C159.99 91 160.98 91 162 91 C162 91.66 162 92.32 162 93 C162.99 93.33 163.98 93.66 165 94 C165 94.66 165 95.32 165 96 C165.99 96 166.98 96 168 96 C168 96.66 168 97.32 168 98 C168.99 98.33 169.98 98.66 171 99 C172.6875 100.375 172.6875 100.375 174 102 C174 102.99 174 103.98 174 105 C174.99 105.33 175.98 105.66 177 106 C177 106.66 177 107.32 177 108 C177.99 108 178.98 108 180 108 C180 108.99 180 109.98 180 111 C180.99 111 181.98 111 183 111 C184.6875 112.3125 184.6875 112.3125 186 114 C186 114.99 186 115.98 186 117 C186.61875 117.309375 187.2375 117.61875 187.875 117.9375 C189.25 118.625 190.625 119.3125 192 120 C192 120.66 192 121.32 192 122 C192.99 122.33 193.98 122.66 195 123 C195 123.66 195 124.32 195 125 C195.99 125.33 196.98 125.66 198 126 C198 126.66 198 127.32 198 128 C198.99 128.33 199.98 128.66 201 129 C201 129.66 201 130.32 201 131 C201.99 131.33 202.98 131.66 204 132 C204 132.66 204 133.32 204 134 C204.99 134 205.98 134 207 134 C207 134.99 207 135.98 207 137 C207.99 137.33 208.98 137.66 210 138 C210 138.66 210 139.32 210 140 C210.99 140.33 211.98 140.66 213 141 C213 141.66 213 142.32 213 143 C213.99 143.33 214.98 143.66 216 144 C217.6875 145.375 217.6875 145.375 219 147 C219 147.99 219 148.98 219 150 C219.99 150 220.98 150 222 150 C222 150.66 222 151.32 222 152 C222.99 152.33 223.98 152.66 225 153 C226.35827971 154.64639965 227.69254251 156.31295807 229 158 C229.66 158.33 230.32 158.66 231 159 C231.33 159.99 231.66 160.98 232 162 C232.66 162.33 233.32 162.66 234 163 C234 163.66 234 164.32 234 165 C234.928125 165.4640625 234.928125 165.4640625 235.875 165.9375 C237.25 166.625 238.625 167.3125 240 168 C240 168.99 240 169.98 240 171 C240.99 171.33 241.98 171.66 243 172 C243 172.66 243 173.32 243 174 C243.99 174.33 244.98 174.66 246 175 C246 175.66 246 176.32 246 177 C246.99 177.33 247.98 177.66 249 178 C249 178.66 249 179.32 249 180 C249.928125 180.4640625 249.928125 180.4640625 250.875 180.9375 C252.25 181.625 253.625 182.3125 255 183 C255 184.32 255 185.64 255 187 C255.99 187 256.98 187 258 187 C258 187.66 258 188.32 258 189 C258.99 189.33 259.98 189.66 261 190 C261 190.66 261 191.32 261 192 C261.928125 192.4640625 261.928125 192.4640625 262.875 192.9375 C264.25 193.625 265.625 194.3125 267 195 C267 195.99 267 196.98 267 198 C267.99 198.33 268.98 198.66 270 199 C270 199.66 270 200.32 270 201 C270.99 201.33 271.98 201.66 273 202 C273 202.66 273 203.32 273 204 C273.99 204 274.98 204 276 204 C276 204.66 276 205.32 276 206 C276.99 206.33 277.98 206.66 279 207 C280.6875 208.375 280.6875 208.375 282 210 C282 210.99 282 211.98 282 213 C282.99 213.33 283.98 213.66 285 214 C285 214.66 285 215.32 285 216 C285.99 216 286.98 216 288 216 C288 216.66 288 217.32 288 218 C288.99 218.33 289.98 218.66 291 219 C291.33 219.99 291.66 220.98 292 222 C292.66 222.33 293.32 222.66 294 223 C294 223.99 294 224.98 294 226 C294.99 226 295.98 226 297 226 C297 226.66 297 227.32 297 228 C297.99 228.33 298.98 228.66 300 229 C300 229.66 300 230.32 300 231 C300.99 231 301.98 231 303 231 C303 231.99 303 232.98 303 234 C303.99 234.33 304.98 234.66 306 235 C306 237.64 306 240.28 306 243 C305.34 243.33 304.68 243.66 304 244 C302.86649466 246.01669827 302.86649466 246.01669827 302 248 C301.34 248 300.68 248 300 248 C300 248.66 300 249.32 300 250 C299.01 250 298.02 250 297 250 C297 250.66 297 251.32 297 252 C296.01 252 295.02 252 294 252 C294 252.66 294 253.32 294 254 C293.01 254 292.02 254 291 254 C290.67 255.32 290.34 256.64 290 258 C289.34 258 288.68 258 288 258 C288 258.99 288 259.98 288 261 C284.66666667 264 284.66666667 264 282 264 C282 264.66 282 265.32 282 266 C280.125 268.125 280.125 268.125 278 270 C277.34 270 276.68 270 276 270 C276 270.66 276 271.32 276 272 C272.53846154 275 272.53846154 275 270 275 C270 275.99 270 276.98 270 278 C268.6875 279.6875 268.6875 279.6875 267 281 C266.01 281 265.02 281 264 281 C263.67 281.99 263.34 282.98 263 284 C262.34 284 261.68 284 261 284 C261 284.66 261 285.32 261 286 C260.01 286 259.02 286 258 286 C257.67 286.99 257.34 287.98 257 289 C256.34 289 255.68 289 255 289 C254.67 290.32 254.34 291.64 254 293 C253.34 293 252.68 293 252 293 C251.67 293.99 251.34 294.98 251 296 C250.34 296 249.68 296 249 296 C249 296.66 249 297.32 249 298 C248.195625 298.474375 247.39125 298.94875 246.5625 299.4375 C243.7081924 300.79983672 243.7081924 300.79983672 243 304 C242.01 304 241.02 304 240 304 C239.67 304.99 239.34 305.98 239 307 C238.34 307 237.68 307 237 307 C237 307.66 237 308.32 237 309 C235.125 311.125 235.125 311.125 233 313 C232.34 313 231.68 313 231 313 C230.67 313.99 230.34 314.98 230 316 C229.34 316 228.68 316 228 316 C227.67 316.99 227.34 317.98 227 319 C225.33333333 319.66666667 223.66666667 320.33333333 222 321 C221.67 321.99 221.34 322.98 221 324 C220.34 324 219.68 324 219 324 C219 324.66 219 325.32 219 326 C217.35648543 327.36176922 215.68477344 328.68962066 214 330 C213.113125 330.9075 212.22625 331.815 211.3125 332.75 C209 335 209 335 207 335 C207 335.99 207 336.98 207 338 C206.01 338 205.02 338 204 338 C204 338.99 204 339.98 204 341 C203.01 341 202.02 341 201 341 C200.67 341.99 200.34 342.98 200 344 C199.34 344 198.68 344 198 344 C197.67 344.99 197.34 345.98 197 347 C196.34 347 195.68 347 195 347 C194.67 347.99 194.34 348.98 194 350 C193.34 350 192.68 350 192 350 C191.67 350.99 191.34 351.98 191 353 C190.34 353 189.68 353 189 353 C189 353.66 189 354.32 189 355 C188.01 355 187.02 355 186 355 C185.67 355.99 185.34 356.98 185 358 C184.34 358 183.68 358 183 358 C182.67 358.99 182.34 359.98 182 361 C181.34 361 180.68 361 180 361 C180 361.99 180 362.98 180 364 C178.5390625 365.38671875 178.5390625 365.38671875 176.625 366.6875 C175.99851562 367.12449219 175.37203125 367.56148438 174.7265625 368.01171875 C173 369 173 369 171 369 C171 369.99 171 370.98 171 372 C170.01 372 169.02 372 168 372 C168 372.99 168 373.98 168 375 C167.01 375 166.02 375 165 375 C164.67 375.99 164.34 376.98 164 378 C163.34 378 162.68 378 162 378 C161.67 378.99 161.34 379.98 161 381 C160.34 381 159.68 381 159 381 C158.67 381.99 158.34 382.98 158 384 C157.34 384 156.68 384 156 384 C156 384.99 156 385.98 156 387 C155.01 387 154.02 387 153 387 C152.67 387.99 152.34 388.98 152 390 C151.34 390 150.68 390 150 390 C149.67 390.99 149.34 391.98 149 393 C148.34 393 147.68 393 147 393 C147 393.66 147 394.32 147 395 C145.5390625 396.5078125 145.5390625 396.5078125 143.625 398.125 C142.99851562 398.66382813 142.37203125 399.20265625 141.7265625 399.7578125 C140 401 140 401 138 401 C138 401.66 138 402.32 138 403 C137.01 403 136.02 403 135 403 C135 403.99 135 404.98 135 406 C133.125 408.1875 133.125 408.1875 131 410 C130.34 410 129.68 410 129 410 C129 410.66 129 411.32 129 412 C125.53846154 415 125.53846154 415 123 415 C123 415.99 123 416.98 123 418 C121.6875 419.6875 121.6875 419.6875 120 421 C119.01 421 118.02 421 117 421 C116.67 421.99 116.34 422.98 116 424 C115.34 424 114.68 424 114 424 C114 424.66 114 425.32 114 426 C113.01 426 112.02 426 111 426 C110.67 426.99 110.34 427.98 110 429 C109.34 429 108.68 429 108 429 C108 429.99 108 430.98 108 432 C104.66666667 435 104.66666667 435 102 435 C102 435.66 102 436.32 102 437 C100.34614767 438.34919532 98.678298 439.68133728 97 441 C96.34 441.99 95.68 442.98 95 444 C94.34 444 93.68 444 93 444 C93 444.66 93 445.32 93 446 C92.01 446 91.02 446 90 446 C90 446.99 90 447.98 90 449 C89.01 449 88.02 449 87 449 C86.67 449.99 86.34 450.98 86 452 C85.34 452 84.68 452 84 452 C84 452.99 84 453.98 84 455 C80.66666667 458 80.66666667 458 78 458 C77.67 458.99 77.34 459.98 77 461 C76.34 461 75.68 461 75 461 C74.67 461.99 74.34 462.98 74 464 C73.34 464 72.68 464 72 464 C72 464.99 72 465.98 72 467 C68.66666667 470 68.66666667 470 66 470 C65.67 470.99 65.34 471.98 65 473 C64.34 473 63.68 473 63 473 C63 473.99 63 474.98 63 476 C62.01 476 61.02 476 60 476 C59.9071875 476.928125 59.9071875 476.928125 59.8125 477.875 C59 480 59 480 56.4375 481.25 C55.633125 481.4975 54.82875 481.745 54 482 C54 482.66 54 483.32 54 484 C53.01 484 52.02 484 51 484 C51.25561323 486.3431213 51.59270772 488.67843403 52 491 C52.66 491.33 53.32 491.66 54 492 C54 492.66 54 493.32 54 494 C54.61875 494.309375 55.2375 494.61875 55.875 494.9375 C57.25 495.625 58.625 496.3125 60 497 C60 497.66 60 498.32 60 499 C60.99 499.33 61.98 499.66 63 500 C63 500.99 63 501.98 63 503 C63.99 503 64.98 503 66 503 C66 503.99 66 504.98 66 506 C66.99 506 67.98 506 69 506 C69 506.66 69 507.32 69 508 C69.99 508.33 70.98 508.66 72 509 C72 509.66 72 510.32 72 511 C72.99 511.33 73.98 511.66 75 512 C75 512.66 75 513.32 75 514 C75.99 514.33 76.98 514.66 78 515 C78 515.66 78 516.32 78 517 C78.61875 517.309375 79.2375 517.61875 79.875 517.9375 C81.25 518.625 82.625 519.3125 84 520 C84 520.99 84 521.98 84 523 C84.99 523 85.98 523 87 523 C87 523.99 87 524.98 87 526 C87.556875 526.2475 88.11375 526.495 88.6875 526.75 C92.51964054 528.82142732 96.21386696 531.62731263 99 535 C99 535.99 99 536.98 99 538 C99.99 538 100.98 538 102 538 C103.6875 539.375 103.6875 539.375 105 541 C105 541.66 105 542.32 105 543 C105.99 543.33 106.98 543.66 108 544 C108 544.66 108 545.32 108 546 C108.99 546.33 109.98 546.66 111 547 C111 547.99 111 548.98 111 550 C111.99 550 112.98 550 114 550 C114 550.66 114 551.32 114 552 C114.99 552.33 115.98 552.66 117 553 C117 553.66 117 554.32 117 555 C117.99 555 118.98 555 120 555 C120 555.99 120 556.98 120 558 C120.99 558.33 121.98 558.66 123 559 C124.6875 560.4375 124.6875 560.4375 126 562 C126 562.66 126 563.32 126 564 C126.99 564.33 127.98 564.66 129 565 C129 565.66 129 566.32 129 567 C129.99 567 130.98 567 132 567 C132 567.66 132 568.32 132 569 C132.99 569.33 133.98 569.66 135 570 C136.6875 571.375 136.6875 571.375 138 573 C138 573.99 138 574.98 138 576 C138.61875 576.309375 139.2375 576.61875 139.875 576.9375 C141.25 577.625 142.625 578.3125 144 579 C144 579.66 144 580.32 144 581 C144.99 581.33 145.98 581.66 147 582 C147 582.66 147 583.32 147 584 C147.99 584.33 148.98 584.66 150 585 C150 585.66 150 586.32 150 587 C150.61875 587.309375 151.2375 587.61875 151.875 587.9375 C153.25 588.625 154.625 589.3125 156 590 C156 590.99 156 591.98 156 593 C156.99 593 157.98 593 159 593 C159 593.99 159 594.98 159 596 C159.99 596.33 160.98 596.66 162 597 C162 597.66 162 598.32 162 599 C162.7425 599.2475 163.485 599.495 164.25 599.75 C167.24973455 601.1135157 168.92077267 602.45872215 171 605 C171 605.99 171 606.98 171 608 C171.61875 608.309375 172.2375 608.61875 172.875 608.9375 C174.25 609.625 175.625 610.3125 177 611 C177 611.66 177 612.32 177 613 C177.99 613.33 178.98 613.66 180 614 C180 614.66 180 615.32 180 616 C180.99 616 181.98 616 183 616 C183 616.99 183 617.98 183 619 C183.556875 619.268125 184.11375 619.53625 184.6875 619.8125 C192.47628083 623.81214421 192.47628083 623.81214421 195 627 C195 627.99 195 628.98 195 630 C195.99 630.33 196.98 630.66 198 631 C198 631.66 198 632.32 198 633 C198.99 633.33 199.98 633.66 201 634 C201 634.66 201 635.32 201 636 C201.99 636.33 202.98 636.66 204 637 C204 637.66 204 638.32 204 639 C204.99 639.33 205.98 639.66 207 640 C207 640.66 207 641.32 207 642 C207.99 642.33 208.98 642.66 210 643 C210 643.66 210 644.32 210 645 C210.99 645.33 211.98 645.66 213 646 C213 646.66 213 647.32 213 648 C213.99 648 214.98 648 216 648 C216 648.66 216 649.32 216 650 C216.99 650.33 217.98 650.66 219 651 C219 651.99 219 652.98 219 654 C219.99 654.33 220.98 654.66 222 655 C222 655.66 222 656.32 222 657 C222.61875 657.309375 223.2375 657.61875 223.875 657.9375 C225.25 658.625 226.625 659.3125 228 660 C228 660.66 228 661.32 228 662 C228.99 662.33 229.98 662.66 231 663 C231 663.66 231 664.32 231 665 C231.99 665.33 232.98 665.66 234 666 C234 666.66 234 667.32 234 668 C234.61875 668.309375 235.2375 668.61875 235.875 668.9375 C237.25 669.625 238.625 670.3125 240 671 C240 671.99 240 672.98 240 674 C240.99 674 241.98 674 243 674 C244.6875 675.3125 244.6875 675.3125 246 677 C246 677.99 246 678.98 246 680 C246.99 680 247.98 680 249 680 C249 680.66 249 681.32 249 682 C249.99 682.33 250.98 682.66 252 683 C252 683.66 252 684.32 252 685 C252.99 685.33 253.98 685.66 255 686 C255 686.66 255 687.32 255 688 C255.57234375 688.27070312 256.1446875 688.54140625 256.734375 688.8203125 C259.05103122 690.02657143 261.1257155 691.35652997 263.25 692.875 C264.30960938 693.61363281 264.30960938 693.61363281 265.390625 694.3671875 C267 696 267 696 267 700 C267.99 700 268.98 700 270 700 C271.3125 701.1875 271.3125 701.1875 273 703 C274.05656025 703.86150298 275.11954896 704.71515856 276.1875 705.5625 C277.115625 706.366875 278.04375 707.17125 279 708 C279 708.66 279 709.32 279 710 C279.99 710.33 280.98 710.66 282 711 C283.6875 712.4375 283.6875 712.4375 285 714 C285 714.66 285 715.32 285 716 C285.99 716.33 286.98 716.66 288 717 C288 717.66 288 718.32 288 719 C288.99 719 289.98 719 291 719 C291.33 719.99 291.66 720.98 292 722 C293.66270287 723.33827304 295.32916181 724.67189785 297 726 C297 726.66 297 727.32 297 728 C297.61875 728.309375 298.2375 728.61875 298.875 728.9375 C300.25 729.625 301.625 730.3125 303 731 C303.33 731.99 303.66 732.98 304 734 C304.66 734.33 305.32 734.66 306 735 C306 735.66 306 736.32 306 737 C306.99 737.33 307.98 737.66 309 738 C308.67 739.98 308.34 741.96 308 744 C307.34 744 306.68 744 306 744 C306 744.99 306 745.98 306 747 C305.34 747.33 304.68 747.66 304 748 C303.67 748.99 303.34 749.98 303 751 C299.55555556 754 299.55555556 754 297 754 C297 754.66 297 755.32 297 756 C295.35648543 757.36176922 293.68477344 758.68962066 292 760 C291.113125 760.9075 290.22625 761.815 289.3125 762.75 C287 765 287 765 285 765 C284.67 765.99 284.34 766.98 284 768 C283.34 768 282.68 768 282 768 C282 768.66 282 769.32 282 770 C281.01 770 280.02 770 279 770 C279 771.32 279 772.64 279 774 C275.78571429 777 275.78571429 777 273 777 C273 777.66 273 778.32 273 779 C269.53846154 782 269.53846154 782 267 782 C267 782.99 267 783.98 267 785 C266.01 785 265.02 785 264 785 C263.67 785.99 263.34 786.98 263 788 C262.34 788 261.68 788 261 788 C261 788.66 261 789.32 261 790 C259.125 792.125 259.125 792.125 257 794 C256.34 794 255.68 794 255 794 C255 794.66 255 795.32 255 796 C253.125 798.125 253.125 798.125 251 800 C250.34 800 249.68 800 249 800 C249 800.66 249 801.32 249 802 C248.01 802 247.02 802 246 802 C245.67 802.99 245.34 803.98 245 805 C244.34 805 243.68 805 243 805 C243 805.99 243 806.98 243 808 C242.01 808 241.02 808 240 808 C239.67 808.99 239.34 809.98 239 811 C238.34 811 237.68 811 237 811 C236.67 811.99 236.34 812.98 236 814 C235.34 814 234.68 814 234 814 C234 814.66 234 815.32 234 816 C233.01 816 232.02 816 231 816 C231 816.99 231 817.98 231 819 C230.01 819 229.02 819 228 819 C228 819.99 228 820.98 228 822 C226.125 824.1875 226.125 824.1875 224 826 C223.34 826 222.68 826 222 826 C222 826.66 222 827.32 222 828 C221.01 828 220.02 828 219 828 C218.67 828.99 218.34 829.98 218 831 C217.34 831 216.68 831 216 831 C216 831.99 216 832.98 216 834 C215.01 834 214.02 834 213 834 C212.67 834.99 212.34 835.98 212 837 C211.34 837 210.68 837 210 837 C210 837.99 210 838.98 210 840 C208.6875 841.6875 208.6875 841.6875 207 843 C206.01 843 205.02 843 204 843 C204 843.99 204 844.98 204 846 C203.01 846 202.02 846 201 846 C200.67 846.99 200.34 847.98 200 849 C199.34 849 198.68 849 198 849 C198 849.66 198 850.32 198 851 C197.01 851 196.02 851 195 851 C195 852.32 195 853.64 195 855 C193.6875 856.75 193.6875 856.75 192 858 C191.01 858 190.02 858 189 858 C188.67 858.99 188.34 859.98 188 861 C187.34 861 186.68 861 186 861 C186 861.66 186 862.32 186 863 C185.01 863 184.02 863 183 863 C183 864.32 183 865.64 183 867 C179.78571429 870 179.78571429 870 177 870 C177 870.66 177 871.32 177 872 C175.6875 873.625 175.6875 873.625 174 875 C173.01 875 172.02 875 171 875 C171 875.99 171 876.98 171 878 C170.01 878 169.02 878 168 878 C168 878.99 168 879.98 168 881 C167.01 881 166.02 881 165 881 C165 881.66 165 882.32 165 883 C164.01 883 163.02 883 162 883 C162 883.99 162 884.98 162 886 C160.125 888.1875 160.125 888.1875 158 890 C157.34 890 156.68 890 156 890 C155.67 890.99 155.34 891.98 155 893 C154.34 893 153.68 893 153 893 C152.67 893.99 152.34 894.98 152 896 C151.34 896 150.68 896 150 896 C149.67 896.99 149.34 897.98 149 899 C148.34 899 147.68 899 147 899 C147 899.99 147 900.98 147 902 C146.01 902 145.02 902 144 902 C144 902.99 144 903.98 144 905 C143.01 905 142.02 905 141 905 C140.67 905.99 140.34 906.98 140 908 C139.34 908 138.68 908 138 908 C138 908.66 138 909.32 138 910 C137.01 910 136.02 910 135 910 C134.67 911.32 134.34 912.64 134 914 C133.34 914 132.68 914 132 914 C131.67 914.99 131.34 915.98 131 917 C130.34 917 129.68 917 129 917 C129 917.66 129 918.32 129 919 C127.6875 920.625 127.6875 920.625 126 922 C125.01 922 124.02 922 123 922 C123 922.99 123 923.98 123 925 C121.5390625 926.60546875 121.5390625 926.60546875 119.625 928.1875 C118.68527344 928.98220703 118.68527344 928.98220703 117.7265625 929.79296875 C116 931 116 931 114 931 C113.67 931.99 113.34 932.98 113 934 C112.34 934 111.68 934 111 934 C111 934.99 111 935.98 111 937 C110.01 937 109.02 937 108 937 C107.67 938.32 107.34 939.64 107 941 C106.34 941 105.68 941 105 941 C105 941.66 105 942.32 105 943 C104.01 943 103.02 943 102 943 C101.67 943.99 101.34 944.98 101 946 C100.34 946 99.68 946 99 946 C99 946.99 99 947.98 99 949 C98.01 949 97.02 949 96 949 C96 949.99 96 950.98 96 952 C92.66666667 955 92.66666667 955 90 955 C89.67 955.99 89.34 956.98 89 958 C88.34 958 87.68 958 87 958 C86.67 958.99 86.34 959.98 86 961 C85.34 961 84.68 961 84 961 C83.67 961.99 83.34 962.98 83 964 C82.34 964 81.68 964 81 964 C80.67 964.99 80.34 965.98 80 967 C79.34 967 78.68 967 78 967 C78 967.66 78 968.32 78 969 C77.01 969 76.02 969 75 969 C75 969.99 75 970.98 75 972 C73.125 974.1875 73.125 974.1875 71 976 C70.34 976 69.68 976 69 976 C69 976.66 69 977.32 69 978 C68.01 978 67.02 978 66 978 C65.67 978.99 65.34 979.98 65 981 C64.34 981 63.68 981 63 981 C63 981.99 63 982.98 63 984 C61.125 986.1875 61.125 986.1875 59 988 C58.34 988 57.68 988 57 988 C57 988.66 57 989.32 57 990 C53.53846154 993 53.53846154 993 51 993 C51 993.66 51 994.32 51 995 C49.125 997.125 49.125 997.125 47 999 C46.34 999 45.68 999 45 999 C45 999.66 45 1000.32 45 1001 C44.01 1001 43.02 1001 42 1001 C42 1001.99 42 1002.98 42 1004 C40.34997172 1005.35386936 38.6825613 1006.68678142 37 1008 C36.67 1008.99 36.34 1009.98 36 1011 C35.01 1011 34.02 1011 33 1011 C32.67 1011.99 32.34 1012.98 32 1014 C31.34 1014 30.68 1014 30 1014 C30 1014.66 30 1015.32 30 1016 C28.125 1018.125 28.125 1018.125 26 1020 C25.34 1020 24.68 1020 24 1020 C23.938125 1020.61875 23.87625 1021.2375 23.8125 1021.875 C23 1024 23 1024 20.4375 1025.25 C19.2309375 1025.62125 19.2309375 1025.62125 18 1026 C18 1026.99 18 1027.98 18 1029 C16.125 1031.1875 16.125 1031.1875 14 1033 C13.34 1033 12.68 1033 12 1033 C11.67 1033.99 11.34 1034.98 11 1036 C10.34 1036 9.68 1036 9 1036 C9 1036.99 9 1037.98 9 1039 C8.34 1039.33 7.68 1039.66 7 1040 C6.67 1040.99 6.34 1041.98 6 1043 C5.01 1043 4.02 1043 3 1043 C2.9175 1043.61875 2.835 1044.2375 2.75 1044.875 C2 1047 2 1047 0.3125 1048.15625 C-2.6092918 1049.22230917 -4.67438486 1048.99114466 -7.75 1048.625 C-8.73484375 1048.51414062 -9.7196875 1048.40328125 -10.734375 1048.2890625 C-11.48203125 1048.19367188 -12.2296875 1048.09828125 -13 1048 C-13.33 1047.01 -13.66 1046.02 -14 1045 C-14.99 1044.67 -15.98 1044.34 -17 1044 C-17 1042.68 -17 1041.36 -17 1040 C-17.99 1040 -18.98 1040 -20 1040 C-20 1039.34 -20 1038.68 -20 1038 C-20.804375 1037.7525 -21.60875 1037.505 -22.4375 1037.25 C-23.283125 1036.8375 -24.12875 1036.425 -25 1036 C-25.625 1033.9375 -25.625 1033.9375 -26 1032 C-26.99 1031.67 -27.98 1031.34 -29 1031 C-29 1030.01 -29 1029.02 -29 1028 C-29.99 1028 -30.98 1028 -32 1028 C-32 1027.34 -32 1026.68 -32 1026 C-32.99 1025.67 -33.98 1025.34 -35 1025 C-35 1024.34 -35 1023.68 -35 1023 C-35.99 1022.67 -36.98 1022.34 -38 1022 C-38 1021.01 -38 1020.02 -38 1019 C-38.99 1018.67 -39.98 1018.34 -41 1018 C-41 1017.34 -41 1016.68 -41 1016 C-41.99 1016 -42.98 1016 -44 1016 C-44 1015.01 -44 1014.02 -44 1013 C-44.99 1013 -45.98 1013 -47 1013 C-47 1012.34 -47 1011.68 -47 1011 C-47.99 1011 -48.98 1011 -50 1011 C-50.33 1010.01 -50.66 1009.02 -51 1008 C-51.66 1007.67 -52.32 1007.34 -53 1007 C-53 1006.34 -53 1005.68 -53 1005 C-53.61875 1004.7525 -54.2375 1004.505 -54.875 1004.25 C-57.38710296 1002.77229238 -57.76107344 1001.56044823 -59 999 C-59.99 998.67 -60.98 998.34 -62 998 C-62 997.34 -62 996.68 -62 996 C-62.99 995.67 -63.98 995.34 -65 995 C-65 994.34 -65 993.68 -65 993 C-65.61875 992.690625 -66.2375 992.38125 -66.875 992.0625 C-68.25 991.375 -69.625 990.6875 -71 990 C-71 989.34 -71 988.68 -71 988 C-71.99 987.67 -72.98 987.34 -74 987 C-74 986.01 -74 985.02 -74 984 C-74.99 984 -75.98 984 -77 984 C-77 983.01 -77 982.02 -77 981 C-77.99 981 -78.98 981 -80 981 C-80 980.34 -80 979.68 -80 979 C-80.99 978.67 -81.98 978.34 -83 978 C-83 977.34 -83 976.68 -83 976 C-83.99 975.67 -84.98 975.34 -86 975 C-87.6875 973.625 -87.6875 973.625 -89 972 C-89 971.01 -89 970.02 -89 969 C-89.99 969 -90.98 969 -92 969 C-92 968.34 -92 967.68 -92 967 C-92.99 966.67 -93.98 966.34 -95 966 C-95 965.34 -95 964.68 -95 964 C-95.99 964 -96.98 964 -98 964 C-98 963.01 -98 962.02 -98 961 C-98.99 960.67 -99.98 960.34 -101 960 C-101 959.34 -101 958.68 -101 958 C-101.7425 957.7525 -102.485 957.505 -103.25 957.25 C-106.24973455 955.8864843 -107.92077267 954.54127785 -110 952 C-110 951.01 -110 950.02 -110 949 C-110.99 949 -111.98 949 -113 949 C-113 948.01 -113 947.02 -113 946 C-113.99 945.67 -114.98 945.34 -116 945 C-116 944.34 -116 943.68 -116 943 C-116.99 943 -117.98 943 -119 943 C-119 942.34 -119 941.68 -119 941 C-119.99 940.67 -120.98 940.34 -122 940 C-122 939.01 -122 938.02 -122 937 C-122.99 937 -123.98 937 -125 937 C-125 936.01 -125 935.02 -125 934 C-125.99 934 -126.98 934 -128 934 C-128 933.01 -128 932.02 -128 931 C-128.99 930.67 -129.98 930.34 -131 930 C-131 929.34 -131 928.68 -131 928 C-131.99 927.67 -132.98 927.34 -134 927 C-134 926.34 -134 925.68 -134 925 C-134.99 925 -135.98 925 -137 925 C-137 924.01 -137 923.02 -137 922 C-137.99 922 -138.98 922 -140 922 C-141.6875 920.625 -141.6875 920.625 -143 919 C-143 918.34 -143 917.68 -143 917 C-143.99 916.67 -144.98 916.34 -146 916 C-146 915.34 -146 914.68 -146 914 C-146.99 913.67 -147.98 913.34 -149 913 C-149 912.01 -149 911.02 -149 910 C-149.99 910 -150.98 910 -152 910 C-152 909.34 -152 908.68 -152 908 C-152.99 907.67 -153.98 907.34 -155 907 C-155 906.34 -155 905.68 -155 905 C-155.99 904.67 -156.98 904.34 -158 904 C-158 903.34 -158 902.68 -158 902 C-158.99 902 -159.98 902 -161 902 C-161.33 901.01 -161.66 900.02 -162 899 C-162.66 898.67 -163.32 898.34 -164 898 C-164 897.34 -164 896.68 -164 896 C-164.99 895.67 -165.98 895.34 -167 895 C-167 894.34 -167 893.68 -167 893 C-167.99 893 -168.98 893 -170 893 C-170 892.01 -170 891.02 -170 890 C-170.99 890 -171.98 890 -173 890 C-173 889.01 -173 888.02 -173 887 C-173.99 886.67 -174.98 886.34 -176 886 C-176 885.34 -176 884.68 -176 884 C-176.804375 883.7525 -177.60875 883.505 -178.4375 883.25 C-181 882 -181 882 -181.8125 879.875 C-181.874375 879.25625 -181.93625 878.6375 -182 878 C-182.99 878 -183.98 878 -185 878 C-185 877.01 -185 876.02 -185 875 C-185.99 875 -186.98 875 -188 875 C-188 874.34 -188 873.68 -188 873 C-188.99 872.67 -189.98 872.34 -191 872 C-191 871.34 -191 870.68 -191 870 C-191.61875 869.690625 -192.2375 869.38125 -192.875 869.0625 C-194.25 868.375 -195.625 867.6875 -197 867 C-197 865.68 -197 864.36 -197 863 C-197.99 863 -198.98 863 -200 863 C-200 862.34 -200 861.68 -200 861 C-200.99 861 -201.98 861 -203 861 C-203 860.34 -203 859.68 -203 859 C-203.99 858.67 -204.98 858.34 -206 858 C-206 857.34 -206 856.68 -206 856 C-206.99 855.67 -207.98 855.34 -209 855 C-209 854.01 -209 853.02 -209 852 C-209.99 851.67 -210.98 851.34 -212 851 C-212 850.34 -212 849.68 -212 849 C-212.99 848.67 -213.98 848.34 -215 848 C-215 847.34 -215 846.68 -215 846 C-215.99 846 -216.98 846 -218 846 C-218 845.01 -218 844.02 -218 843 C-218.99 843 -219.98 843 -221 843 C-221.495 841.515 -221.495 841.515 -222 840 C-222.66 839.67 -223.32 839.34 -224 839 C-224 838.34 -224 837.68 -224 837 C-224.99 836.67 -225.98 836.34 -227 836 C-227 835.34 -227 834.68 -227 834 C-227.99 834 -228.98 834 -230 834 C-230 833.34 -230 832.68 -230 832 C-230.99 831.67 -231.98 831.34 -233 831 C-234.6875 829.5625 -234.6875 829.5625 -236 828 C-236 827.34 -236 826.68 -236 826 C-236.99 825.67 -237.98 825.34 -239 825 C-239 824.34 -239 823.68 -239 823 C-239.99 822.67 -240.98 822.34 -242 822 C-242 821.34 -242 820.68 -242 820 C-242.99 819.67 -243.98 819.34 -245 819 C-245 818.34 -245 817.68 -245 817 C-245.99 816.67 -246.98 816.34 -248 816 C-248 815.34 -248 814.68 -248 814 C-248.99 814 -249.98 814 -251 814 C-252.6875 812.625 -252.6875 812.625 -254 811 C-254 810.34 -254 809.68 -254 809 C-254.99 808.67 -255.98 808.34 -257 808 C-257 807.34 -257 806.68 -257 806 C-257.99 805.67 -258.98 805.34 -260 805 C-260 804.34 -260 803.68 -260 803 C-260.61875 802.690625 -261.2375 802.38125 -261.875 802.0625 C-263.25 801.375 -264.625 800.6875 -266 800 C-266 799.01 -266 798.02 -266 797 C-266.99 796.67 -267.98 796.34 -269 796 C-269 795.34 -269 794.68 -269 794 C-269.556875 793.7525 -270.11375 793.505 -270.6875 793.25 C-273.44160479 791.76129471 -275.69174514 790.11590028 -278 788 C-278 787.01 -278 786.02 -278 785 C-278.99 785 -279.98 785 -281 785 C-281 784.01 -281 783.02 -281 782 C-281.61875 781.690625 -282.2375 781.38125 -282.875 781.0625 C-284.25 780.375 -285.625 779.6875 -287 779 C-287 778.34 -287 777.68 -287 777 C-287.99 776.67 -288.98 776.34 -290 776 C-291.6875 774.625 -291.6875 774.625 -293 773 C-293 772.01 -293 771.02 -293 770 C-293.99 769.67 -294.98 769.34 -296 769 C-296 768.34 -296 767.68 -296 767 C-296.99 767 -297.98 767 -299 767 C-299 766.34 -299 765.68 -299 765 C-299.99 764.67 -300.98 764.34 -302 764 C-302 763.34 -302 762.68 -302 762 C-302.61875 761.7525 -303.2375 761.505 -303.875 761.25 C-306.38710296 759.77229238 -306.76107344 758.56044823 -308 756 C-308.99 755.67 -309.98 755.34 -311 755 C-311 754.34 -311 753.68 -311 753 C-311.99 753 -312.98 753 -314 753 C-314 752.34 -314 751.68 -314 751 C-314.99 750.67 -315.98 750.34 -317 750 C-317.495 748.515 -317.495 748.515 -318 747 C-318.66 746.67 -319.32 746.34 -320 746 C-320 743.69 -320 741.38 -320 739 C-320.66 738.67 -321.32 738.34 -322 738 C-321.34 738 -320.68 738 -320 738 C-319.67 737.01 -319.34 736.02 -319 735 C-318.34 735 -317.68 735 -317 735 C-316.938125 734.21625 -316.87625 733.4325 -316.8125 732.625 C-316.544375 731.75875 -316.27625 730.8925 -316 730 C-313.4375 728.6875 -313.4375 728.6875 -311 728 C-311 727.34 -311 726.68 -311 726 C-310.21625 725.54625 -309.4325 725.0925 -308.625 724.625 C-305.8764051 722.92348887 -305.12078968 721.95480916 -304 719 C-303.34 719 -302.68 719 -302 719 C-302 718.34 -302 717.68 -302 717 C-301.01 717 -300.02 717 -299 717 C-298.67 716.01 -298.34 715.02 -298 714 C-297.34 714 -296.68 714 -296 714 C-295.67 713.01 -295.34 712.02 -295 711 C-294.34 711 -293.68 711 -293 711 C-293 710.01 -293 709.02 -293 708 C-289.66666667 705 -289.66666667 705 -287 705 C-287 704.34 -287 703.68 -287 703 C-283.53846154 700 -283.53846154 700 -281 700 C-281 699.01 -281 698.02 -281 697 C-280.01 697 -279.02 697 -278 697 C-278 696.01 -278 695.02 -278 694 C-276.5390625 692.39453125 -276.5390625 692.39453125 -274.625 690.8125 C-273.99851562 690.28269531 -273.37203125 689.75289062 -272.7265625 689.20703125 C-271 688 -271 688 -269 688 C-268.67 687.01 -268.34 686.02 -268 685 C-267.34 685 -266.68 685 -266 685 C-265.67 684.01 -265.34 683.02 -265 682 C-264.34 682 -263.68 682 -263 682 C-262.67 681.01 -262.34 680.02 -262 679 C-261.34 679 -260.68 679 -260 679 C-259.67 678.01 -259.34 677.02 -259 676 C-258.34 676 -257.68 676 -257 676 C-257 675.34 -257 674.68 -257 674 C-256.01 674 -255.02 674 -254 674 C-254 673.01 -254 672.02 -254 671 C-252.36368108 669.95107762 -250.69514137 668.95093297 -249 668 C-248.67 667.34 -248.34 666.68 -248 666 C-247.01 666 -246.02 666 -245 666 C-244.67 664.68 -244.34 663.36 -244 662 C-243.34 662 -242.68 662 -242 662 C-242 661.34 -242 660.68 -242 660 C-240.5498829 658.74762614 -239.09372928 657.50079426 -237.59375 656.30859375 C-235.82407293 654.90509072 -235.82407293 654.90509072 -233.75 652.6875 C-232 651 -232 651 -230 651 C-229.67 650.01 -229.34 649.02 -229 648 C-228.34 648 -227.68 648 -227 648 C-226.67 647.01 -226.34 646.02 -226 645 C-225.34 645 -224.68 645 -224 645 C-224 644.34 -224 643.68 -224 643 C-222.125 640.875 -222.125 640.875 -220 639 C-219.34 639 -218.68 639 -218 639 C-217.67 638.01 -217.34 637.02 -217 636 C-216.34 636 -215.68 636 -215 636 C-214.67 635.01 -214.34 634.02 -214 633 C-213.34 633 -212.68 633 -212 633 C-211.67 632.01 -211.34 631.02 -211 630 C-210.34 630 -209.68 630 -209 630 C-208.67 629.01 -208.34 628.02 -208 627 C-207.34 627 -206.68 627 -206 627 C-205.67 626.01 -205.34 625.02 -205 624 C-203.33333333 623.33333333 -201.66666667 622.66666667 -200 622 C-199.67 621.01 -199.34 620.02 -199 619 C-198.34 619 -197.68 619 -197 619 C-196.67 618.01 -196.34 617.02 -196 616 C-195.34 616 -194.68 616 -194 616 C-193.67 615.01 -193.34 614.02 -193 613 C-192.34 613 -191.68 613 -191 613 C-190.62875 612.071875 -190.62875 612.071875 -190.25 611.125 C-188.79371361 608.64931313 -187.62187494 608.04874998 -185 607 C-185 606.34 -185 605.68 -185 605 C-183.5390625 603.4921875 -183.5390625 603.4921875 -181.625 601.875 C-180.99851562 601.33617187 -180.37203125 600.79734375 -179.7265625 600.2421875 C-178 599 -178 599 -176 599 C-175.67 598.01 -175.34 597.02 -175 596 C-174.34 596 -173.68 596 -173 596 C-173 595.34 -173 594.68 -173 594 C-172.01 594 -171.02 594 -170 594 C-169.67 592.68 -169.34 591.36 -169 590 C-168.34 590 -167.68 590 -167 590 C-167 589.34 -167 588.68 -167 588 C-163.53846154 585 -163.53846154 585 -161 585 C-161 584.01 -161 583.02 -161 582 C-160.01 582 -159.02 582 -158 582 C-158 581.01 -158 580.02 -158 579 C-157.01 579 -156.02 579 -155 579 C-154.67 578.01 -154.34 577.02 -154 576 C-153.34 576 -152.68 576 -152 576 C-152 575.34 -152 574.68 -152 574 C-150.125 571.875 -150.125 571.875 -148 570 C-147.34 570 -146.68 570 -146 570 C-145.67 569.01 -145.34 568.02 -145 567 C-144.34 567 -143.68 567 -143 567 C-142.67 566.01 -142.34 565.02 -142 564 C-141.34 564 -140.68 564 -140 564 C-140 563.34 -140 562.68 -140 562 C-138.125 559.875 -138.125 559.875 -136 558 C-135.34 558 -134.68 558 -134 558 C-133.67 557.01 -133.34 556.02 -133 555 C-132.34 555 -131.68 555 -131 555 C-130.67 554.01 -130.34 553.02 -130 552 C-129.34 552 -128.68 552 -128 552 C-127.67 551.01 -127.34 550.02 -127 549 C-126.34 549 -125.68 549 -125 549 C-125 548.01 -125 547.02 -125 546 C-123.03148915 544.21044468 -121.11022956 542.59818856 -119 541 C-117.88625 540.1028125 -117.88625 540.1028125 -116.75 539.1875 C-115 538 -115 538 -113 538 C-113 537.01 -113 536.02 -113 535 C-112.01 535 -111.02 535 -110 535 C-110 534.01 -110 533.02 -110 532 C-108.5390625 530.39453125 -108.5390625 530.39453125 -106.625 528.8125 C-105.99851562 528.28269531 -105.37203125 527.75289062 -104.7265625 527.20703125 C-103 526 -103 526 -101 526 C-100.67 525.01 -100.34 524.02 -100 523 C-99.34 523 -98.68 523 -98 523 C-98 522.01 -98 521.02 -98 520 C-97.01 520 -96.02 520 -95 520 C-95 519.34 -95 518.68 -95 518 C-94.01 518 -93.02 518 -92 518 C-92 517.01 -92 516.02 -92 515 C-90.6875 513.3125 -90.6875 513.3125 -89 512 C-88.01 512 -87.02 512 -86 512 C-86 511.01 -86 510.02 -86 509 C-84.6875 507.3125 -84.6875 507.3125 -83 506 C-82.01 506 -81.02 506 -80 506 C-79.67 505.01 -79.34 504.02 -79 503 C-78.34 503 -77.68 503 -77 503 C-76.67 501.68 -76.34 500.36 -76 499 C-75.34 499 -74.68 499 -74 499 C-74 498.34 -74 497.68 -74 497 C-70.53846154 494 -70.53846154 494 -68 494 C-67.67 493.01 -67.34 492.02 -67 491 C-66.34 491 -65.68 491 -65 491 C-65 488.69 -65 486.38 -65 484 C-65.928125 483.5359375 -65.928125 483.5359375 -66.875 483.0625 C-68.25 482.375 -69.625 481.6875 -71 481 C-71 480.34 -71 479.68 -71 479 C-71.99 478.67 -72.98 478.34 -74 478 C-74 477.34 -74 476.68 -74 476 C-74.99 475.67 -75.98 475.34 -77 475 C-78.6875 473.5625 -78.6875 473.5625 -80 472 C-80 471.34 -80 470.68 -80 470 C-80.61875 469.690625 -81.2375 469.38125 -81.875 469.0625 C-83.25 468.375 -84.625 467.6875 -86 467 C-86 466.01 -86 465.02 -86 464 C-86.99 463.67 -87.98 463.34 -89 463 C-89 462.34 -89 461.68 -89 461 C-89.99 460.67 -90.98 460.34 -92 460 C-92 459.34 -92 458.68 -92 458 C-92.61875 457.690625 -93.2375 457.38125 -93.875 457.0625 C-95.25 456.375 -96.625 455.6875 -98 455 C-98 454.01 -98 453.02 -98 452 C-98.99 451.67 -99.98 451.34 -101 451 C-101 450.34 -101 449.68 -101 449 C-101.99 449 -102.98 449 -104 449 C-104 448.34 -104 447.68 -104 447 C-104.99 446.67 -105.98 446.34 -107 446 C-107 445.34 -107 444.68 -107 444 C-107.99 444 -108.98 444 -110 444 C-110 443.01 -110 442.02 -110 441 C-110.99 440.67 -111.98 440.34 -113 440 C-113 439.34 -113 438.68 -113 438 C-113.556875 437.7525 -114.11375 437.505 -114.6875 437.25 C-117.44160479 435.76129471 -119.69174514 434.11590028 -122 432 C-122 431.01 -122 430.02 -122 429 C-122.99 429 -123.98 429 -125 429 C-125 428.34 -125 427.68 -125 427 C-125.99 426.67 -126.98 426.34 -128 426 C-128 425.34 -128 424.68 -128 424 C-128.99 423.67 -129.98 423.34 -131 423 C-131 422.34 -131 421.68 -131 421 C-131.99 420.67 -132.98 420.34 -134 420 C-134 419.34 -134 418.68 -134 418 C-134.99 417.67 -135.98 417.34 -137 417 C-137 416.34 -137 415.68 -137 415 C-137.99 414.67 -138.98 414.34 -140 414 C-140 413.34 -140 412.68 -140 412 C-140.99 412 -141.98 412 -143 412 C-143 411.34 -143 410.68 -143 410 C-143.99 409.67 -144.98 409.34 -146 409 C-146 408.34 -146 407.68 -146 407 C-146.99 406.67 -147.98 406.34 -149 406 C-149 405.34 -149 404.68 -149 404 C-149.99 403.67 -150.98 403.34 -152 403 C-152 402.34 -152 401.68 -152 401 C-152.99 400.67 -153.98 400.34 -155 400 C-155 399.34 -155 398.68 -155 398 C-155.99 397.67 -156.98 397.34 -158 397 C-158 396.34 -158 395.68 -158 395 C-158.99 395 -159.98 395 -161 395 C-161 394.01 -161 393.02 -161 392 C-161.99 392 -162.98 392 -164 392 C-164 391.34 -164 390.68 -164 390 C-164.99 389.67 -165.98 389.34 -167 389 C-167 388.34 -167 387.68 -167 387 C-167.99 386.67 -168.98 386.34 -170 386 C-171.35827971 384.35360035 -172.69254251 382.68704193 -174 381 C-174.66 380.67 -175.32 380.34 -176 380 C-176 379.34 -176 378.68 -176 378 C-176.99 377.67 -177.98 377.34 -179 377 C-179 376.34 -179 375.68 -179 375 C-179.99 374.67 -180.98 374.34 -182 374 C-182 373.34 -182 372.68 -182 372 C-182.99 371.67 -183.98 371.34 -185 371 C-186.6875 369.5625 -186.6875 369.5625 -188 368 C-188 367.34 -188 366.68 -188 366 C-188.99 365.67 -189.98 365.34 -191 365 C-191 364.34 -191 363.68 -191 363 C-191.99 363 -192.98 363 -194 363 C-194 362.01 -194 361.02 -194 360 C-194.99 360 -195.98 360 -197 360 C-197 359.01 -197 358.02 -197 357 C-197.99 357 -198.98 357 -200 357 C-201.6875 355.625 -201.6875 355.625 -203 354 C-203 353.34 -203 352.68 -203 352 C-203.99 351.67 -204.98 351.34 -206 351 C-206 350.34 -206 349.68 -206 349 C-206.99 349 -207.98 349 -209 349 C-210.6875 347.6875 -210.6875 347.6875 -212 346 C-212 345.01 -212 344.02 -212 343 C-212.99 343 -213.98 343 -215 343 C-215 342.34 -215 341.68 -215 341 C-215.99 340.67 -216.98 340.34 -218 340 C-219.6875 338.625 -219.6875 338.625 -221 337 C-221 336.01 -221 335.02 -221 334 C-222.3921875 333.5978125 -222.3921875 333.5978125 -223.8125 333.1875 C-226.76366897 332.0880449 -228.19132029 331.51205515 -230 329 C-230 328.01 -230 327.02 -230 326 C-230.99 326 -231.98 326 -233 326 C-233 325.01 -233 324.02 -233 323 C-233.99 322.67 -234.98 322.34 -236 322 C-236 321.34 -236 320.68 -236 320 C-236.99 320 -237.98 320 -239 320 C-239 319.34 -239 318.68 -239 318 C-239.99 317.67 -240.98 317.34 -242 317 C-242 316.34 -242 315.68 -242 315 C-242.99 314.67 -243.98 314.34 -245 314 C-245 313.34 -245 312.68 -245 312 C-245.99 311.67 -246.98 311.34 -248 311 C-248 310.34 -248 309.68 -248 309 C-248.99 309 -249.98 309 -251 309 C-251 308.01 -251 307.02 -251 306 C-251.99 306 -252.98 306 -254 306 C-254 305.34 -254 304.68 -254 304 C-254.99 303.67 -255.98 303.34 -257 303 C-257 302.01 -257 301.02 -257 300 C-258.2065625 299.5978125 -258.2065625 299.5978125 -259.4375 299.1875 C-260.283125 298.795625 -261.12875 298.40375 -262 298 C-262.495 296.515 -262.495 296.515 -263 295 C-264.91666667 293.83333333 -264.91666667 293.83333333 -267 293 C-269 292 -269 292 -270 289 C-270.66 288.67 -271.32 288.34 -272 288 C-272 287.34 -272 286.68 -272 286 C-272.99 286 -273.98 286 -275 286 C-276.6875 284.625 -276.6875 284.625 -278 283 C-278 282.34 -278 281.68 -278 281 C-278.99 280.67 -279.98 280.34 -281 280 C-282.6875 278.5625 -282.6875 278.5625 -284 277 C-284 276.34 -284 275.68 -284 275 C-284.99 274.67 -285.98 274.34 -287 274 C-288.6875 272.5625 -288.6875 272.5625 -290 271 C-290 270.34 -290 269.68 -290 269 C-290.99 268.67 -291.98 268.34 -293 268 C-293 267.34 -293 266.68 -293 266 C-293.99 265.67 -294.98 265.34 -296 265 C-296 264.34 -296 263.68 -296 263 C-296.99 262.67 -297.98 262.34 -299 262 C-299 261.34 -299 260.68 -299 260 C-299.99 260 -300.98 260 -302 260 C-302 259.34 -302 258.68 -302 258 C-302.99 257.67 -303.98 257.34 -305 257 C-305 256.01 -305 255.02 -305 254 C-305.61875 253.690625 -306.2375 253.38125 -306.875 253.0625 C-308.25 252.375 -309.625 251.6875 -311 251 C-311 250.34 -311 249.68 -311 249 C-311.61875 248.690625 -312.2375 248.38125 -312.875 248.0625 C-314.25 247.375 -315.625 246.6875 -317 246 C-317 244.35 -317 242.7 -317 241 C-317.99 240.67 -318.98 240.34 -320 240 C-320 238.35 -320 236.7 -320 235 C-319.34 234.67 -318.68 234.34 -318 234 C-316.86649466 231.98330173 -316.86649466 231.98330173 -316 230 C-315.34 230 -314.68 230 -314 230 C-314 229.34 -314 228.68 -314 228 C-313.01 228 -312.02 228 -311 228 C-310.67 227.01 -310.34 226.02 -310 225 C-309.34 225 -308.68 225 -308 225 C-307.67 224.01 -307.34 223.02 -307 222 C-306.34 222 -305.68 222 -305 222 C-304.67 221.01 -304.34 220.02 -304 219 C-303.34 219 -302.68 219 -302 219 C-301.67 218.01 -301.34 217.02 -301 216 C-300.34 216 -299.68 216 -299 216 C-299 215.34 -299 214.68 -299 214 C-298.01 214 -297.02 214 -296 214 C-296 213.01 -296 212.02 -296 211 C-295.01 211 -294.02 211 -293 211 C-292.67 209.68 -292.34 208.36 -292 207 C-291.34 207 -290.68 207 -290 207 C-289.67 206.01 -289.34 205.02 -289 204 C-288.34 204 -287.68 204 -287 204 C-287 203.34 -287 202.68 -287 202 C-286.01 202 -285.02 202 -284 202 C-283.67 201.01 -283.34 200.02 -283 199 C-282.34 199 -281.68 199 -281 199 C-281 197.68 -281 196.36 -281 195 C-277.78571429 192 -277.78571429 192 -275 192 C-275 191.34 -275 190.68 -275 190 C-273.6875 188.375 -273.6875 188.375 -272 187 C-271.01 187 -270.02 187 -269 187 C-269 185.68 -269 184.36 -269 183 C-265.78571429 180 -265.78571429 180 -263 180 C-262.67 179.01 -262.34 178.02 -262 177 C-261.34 177 -260.68 177 -260 177 C-259.67 176.01 -259.34 175.02 -259 174 C-258.34 174 -257.68 174 -257 174 C-256.67 173.01 -256.34 172.02 -256 171 C-255.34 171 -254.68 171 -254 171 C-254 170.34 -254 169.68 -254 169 C-252.125 166.875 -252.125 166.875 -250 165 C-249.34 165 -248.68 165 -248 165 C-248 164.34 -248 163.68 -248 163 C-246.125 160.875 -246.125 160.875 -244 159 C-243.34 159 -242.68 159 -242 159 C-242 158.01 -242 157.02 -242 156 C-240.36935236 154.94228261 -238.69719127 153.94726954 -237 153 C-234.59120835 150.93532144 -234.03668447 150.11005341 -233 147 C-232.01 147 -231.02 147 -230 147 C-229.67 146.01 -229.34 145.02 -229 144 C-228.34 144 -227.68 144 -227 144 C-226.67 143.01 -226.34 142.02 -226 141 C-225.34 141 -224.68 141 -224 141 C-223.67 140.01 -223.34 139.02 -223 138 C-222.34 138 -221.68 138 -221 138 C-221 137.01 -221 136.02 -221 135 C-220.01 135 -219.02 135 -218 135 C-217.67 134.01 -217.34 133.02 -217 132 C-216.34 132 -215.68 132 -215 132 C-214.773125 131.443125 -214.54625 130.88625 -214.3125 130.3125 C-212.62449964 127.33840412 -210.53323483 125.27991135 -208 123 C-207.34 123 -206.68 123 -206 123 C-206 122.01 -206 121.02 -206 120 C-205.01 120 -204.02 120 -203 120 C-203 119.34 -203 118.68 -203 118 C-202.01 118 -201.02 118 -200 118 C-200 117.01 -200 116.02 -200 115 C-199.01 115 -198.02 115 -197 115 C-196.505 113.02 -196.505 113.02 -196 111 C-195.34 111 -194.68 111 -194 111 C-193.67 109.68 -193.34 108.36 -193 107 C-192.34 107 -191.68 107 -191 107 C-191 106.34 -191 105.68 -191 105 C-189.5390625 103.4921875 -189.5390625 103.4921875 -187.625 101.875 C-186.99851562 101.33617188 -186.37203125 100.79734375 -185.7265625 100.2421875 C-184 99 -184 99 -182 99 C-181.67 98.01 -181.34 97.02 -181 96 C-180.34 96 -179.68 96 -179 96 C-178.67 95.01 -178.34 94.02 -178 93 C-177.34 93 -176.68 93 -176 93 C-176 92.34 -176 91.68 -176 91 C-175.01 91 -174.02 91 -173 91 C-173 89.68 -173 88.36 -173 87 C-171.6875 85.25 -171.6875 85.25 -170 84 C-169.01 84 -168.02 84 -167 84 C-166.67 83.01 -166.34 82.02 -166 81 C-165.34 81 -164.68 81 -164 81 C-163.67 80.01 -163.34 79.02 -163 78 C-162.34 78 -161.68 78 -161 78 C-160.95875 77.2575 -160.9175 76.515 -160.875 75.75 C-159.64107722 71.87195699 -157.47911685 70.91706439 -154 69 C-153.34 69 -152.68 69 -152 69 C-151.67 68.01 -151.34 67.02 -151 66 C-147.26269935 63.50846623 -144.32345184 63.58974545 -140 64 C-137.5879333 64.52593936 -135.34792812 65.21735729 -133 66 C-133.33 66.66 -133.66 67.32 -134 68 C-135.32 68 -136.64 68 -138 68 C-138.33 68.99 -138.66 69.98 -139 71 C-139.66 71 -140.32 71 -141 71 C-141 72.98 -141 74.96 -141 77 C-141.99 77.495 -141.99 77.495 -143 78 C-143.65555119 80.52733235 -143.65555119 80.52733235 -144 83 C-144.99 83 -145.98 83 -147 83 C-147 83.99 -147 84.98 -147 86 C-147.99 86.495 -147.99 86.495 -149 87 C-150.13350534 89.01669827 -150.13350534 89.01669827 -151 91 C-151.66 91 -152.32 91 -153 91 C-153.33 92.65 -153.66 94.3 -154 96 C-154.66 96 -155.32 96 -156 96 C-156 97.98 -156 99.96 -156 102 C-156.99 102.33 -157.98 102.66 -159 103 C-159.73323796 105.01508358 -159.73323796 105.01508358 -160 107 C-160.66 107 -161.32 107 -162 107 C-162 107.99 -162 108.98 -162 110 C-162.99 110 -163.98 110 -165 110 C-164.95875 110.78375 -164.9175 111.5675 -164.875 112.375 C-165 115 -165 115 -167 117 C-167.70710678 118.64991582 -168.37943989 120.31562256 -169 122 C-169.66 122 -170.32 122 -171 122 C-171.33 123.65 -171.66 125.3 -172 127 C-172.66 127 -173.32 127 -174 127 C-174 128.65 -174 130.3 -174 132 C-174.99 132.33 -175.98 132.66 -177 133 C-177.103125 133.680625 -177.20625 134.36125 -177.3125 135.0625 C-178.14725019 138.62915989 -179.49472754 141.66222194 -181 145 C-181.66 145 -182.32 145 -183 145 C-183 145.99 -183 146.98 -183 148 C-183.66 148.33 -184.32 148.66 -185 149 C-185.165 149.66 -185.33 150.32 -185.5 151 C-185.665 151.66 -185.83 152.32 -186 153 C-186.66 153.33 -187.32 153.66 -188 154 C-188.165 154.66 -188.33 155.32 -188.5 156 C-188.665 156.66 -188.83 157.32 -189 158 C-189.66 158.33 -190.32 158.66 -191 159 C-191.70626239 160.98636298 -192.36893571 162.98848259 -193 165 C-193.63815344 166.34721283 -194.29325371 167.68747118 -195 169 C-195.99 169 -196.98 169 -198 169 C-198 170.65 -198 172.3 -198 174 C-198.99 174 -199.98 174 -201 174 C-201 175.65 -201 177.3 -201 179 C-201.99 179 -202.98 179 -204 179 C-204 180.98 -204 182.96 -204 185 C-204.66 185.33 -205.32 185.66 -206 186 C-206.165 186.66 -206.33 187.32 -206.5 188 C-206.665 188.66 -206.83 189.32 -207 190 C-207.66 190.33 -208.32 190.66 -209 191 C-209.33 191.99 -209.66 192.98 -210 194 C-210.66 194.33 -211.32 194.66 -212 195 C-213.13350534 197.01669827 -213.13350534 197.01669827 -214 199 C-214.66 199 -215.32 199 -216 199 C-216 200.98 -216 202.96 -216 205 C-216.99 205.33 -217.98 205.66 -219 206 C-219.33 207.65 -219.66 209.3 -220 211 C-220.66 211 -221.32 211 -222 211 C-222.33 212.32 -222.66 213.64 -223 215 C-223.66 215 -224.32 215 -225 215 C-225.33 216.65 -225.66 218.3 -226 220 C-226.66 220 -227.32 220 -228 220 C-227.979375 220.94875 -227.95875 221.8975 -227.9375 222.875 C-228 226 -228 226 -229 228 C-229.66 228 -230.32 228 -231 228 C-231.33 229.65 -231.66 231.3 -232 233 C-232.66 233 -233.32 233 -234 233 C-234 235.31 -234 237.62 -234 240 C-233.01 240.33 -232.02 240.66 -231 241 C-229.3125 242.375 -229.3125 242.375 -228 244 C-228 244.99 -228 245.98 -228 247 C-227.38125 247.309375 -226.7625 247.61875 -226.125 247.9375 C-224.75 248.625 -223.375 249.3125 -222 250 C-222 250.66 -222 251.32 -222 252 C-221.195625 252.2475 -220.39125 252.495 -219.5625 252.75 C-217 254 -217 254 -216.1875 256.125 C-216.125625 256.74375 -216.06375 257.3625 -216 258 C-215.01 258 -214.02 258 -213 258 C-213 258.66 -213 259.32 -213 260 C-212.01 260.33 -211.02 260.66 -210 261 C-210 261.66 -210 262.32 -210 263 C-209.01 263 -208.02 263 -207 263 C-205.3125 264.3125 -205.3125 264.3125 -204 266 C-204 266.99 -204 267.98 -204 269 C-203.01 269 -202.02 269 -201 269 C-201 269.66 -201 270.32 -201 271 C-200.01 271.33 -199.02 271.66 -198 272 C-198 272.66 -198 273.32 -198 274 C-197.38125 274.309375 -196.7625 274.61875 -196.125 274.9375 C-194.75 275.625 -193.375 276.3125 -192 277 C-192 277.99 -192 278.98 -192 280 C-191.01 280 -190.02 280 -189 280 C-189 280.66 -189 281.32 -189 282 C-188.01 282.33 -187.02 282.66 -186 283 C-186 283.66 -186 284.32 -186 285 C-185.01 285 -184.02 285 -183 285 C-183 285.66 -183 286.32 -183 287 C-182.01 287.33 -181.02 287.66 -180 288 C-180 288.66 -180 289.32 -180 290 C-179.01 290.33 -178.02 290.66 -177 291 C-177 291.66 -177 292.32 -177 293 C-176.01 293 -175.02 293 -174 293 C-174 293.99 -174 294.98 -174 296 C-173.01 296 -172.02 296 -171 296 C-171 296.66 -171 297.32 -171 298 C-170.01 298.33 -169.02 298.66 -168 299 C-168 299.99 -168 300.98 -168 302 C-167.01 302 -166.02 302 -165 302 C-165 302.66 -165 303.32 -165 304 C-164.01 304 -163.02 304 -162 304 C-162 304.99 -162 305.98 -162 307 C-161.01 307 -160.02 307 -159 307 C-159 307.66 -159 308.32 -159 309 C-158.01 309 -157.02 309 -156 309 C-156 309.99 -156 310.98 -156 312 C-155.01 312.33 -154.02 312.66 -153 313 C-153 313.66 -153 314.32 -153 315 C-152.38125 315.309375 -151.7625 315.61875 -151.125 315.9375 C-149.75 316.625 -148.375 317.3125 -147 318 C-147 318.66 -147 319.32 -147 320 C-146.01 320.33 -145.02 320.66 -144 321 C-144 321.66 -144 322.32 -144 323 C-143.01 323 -142.02 323 -141 323 C-141 323.66 -141 324.32 -141 325 C-140.01 325.33 -139.02 325.66 -138 326 C-138 326.66 -138 327.32 -138 328 C-136.7934375 328.37125 -136.7934375 328.37125 -135.5625 328.75 C-133 330 -133 330 -132.1875 332.125 C-132.125625 332.74375 -132.06375 333.3625 -132 334 C-131.01 334 -130.02 334 -129 334 C-129 334.66 -129 335.32 -129 336 C-128.01 336.33 -127.02 336.66 -126 337 C-126 337.66 -126 338.32 -126 339 C-125.01 339 -124.02 339 -123 339 C-123 339.66 -123 340.32 -123 341 C-122.01 341.33 -121.02 341.66 -120 342 C-120 342.66 -120 343.32 -120 344 C-119.01 344.33 -118.02 344.66 -117 345 C-117 345.66 -117 346.32 -117 347 C-116.01 347.33 -115.02 347.66 -114 348 C-114 348.66 -114 349.32 -114 350 C-113.01 350 -112.02 350 -111 350 C-111 350.66 -111 351.32 -111 352 C-110.01 352.33 -109.02 352.66 -108 353 C-108 353.99 -108 354.98 -108 356 C-107.01 356 -106.02 356 -105 356 C-105 356.66 -105 357.32 -105 358 C-104.01 358.33 -103.02 358.66 -102 359 C-102 359.66 -102 360.32 -102 361 C-101.01 361 -100.02 361 -99 361 C-99 361.66 -99 362.32 -99 363 C-98.01 363 -97.02 363 -96 363 C-96 363.99 -96 364.98 -96 366 C-95.01 366.33 -94.02 366.66 -93 367 C-93 367.66 -93 368.32 -93 369 C-92.01 369 -91.02 369 -90 369 C-90 369.66 -90 370.32 -90 371 C-89.01 371 -88.02 371 -87 371 C-85.3125 372.3125 -85.3125 372.3125 -84 374 C-84 374.99 -84 375.98 -84 377 C-83.01 377 -82.02 377 -81 377 C-81 377.66 -81 378.32 -81 379 C-80.01 379.33 -79.02 379.66 -78 380 C-78 380.66 -78 381.32 -78 382 C-77.01 382.33 -76.02 382.66 -75 383 C-75 383.66 -75 384.32 -75 385 C-74.01 385 -73.02 385 -72 385 C-72 385.99 -72 386.98 -72 388 C-71.01 388 -70.02 388 -69 388 C-69 388.99 -69 389.98 -69 391 C-68.01 391 -67.02 391 -66 391 C-66 391.66 -66 392.32 -66 393 C-65.01 393.33 -64.02 393.66 -63 394 C-63 394.66 -63 395.32 -63 396 C-62.01 396 -61.02 396 -60 396 C-60 396.99 -60 397.98 -60 399 C-59.01 399.33 -58.02 399.66 -57 400 C-57 400.66 -57 401.32 -57 402 C-56.2575 402.268125 -55.515 402.53625 -54.75 402.8125 C-52.10938051 403.95276751 -50.14447156 405.09380306 -48 407 C-48 407.66 -48 408.32 -48 409 C-47.195625 409.268125 -46.39125 409.53625 -45.5625 409.8125 C-44.716875 410.204375 -43.87125 410.59625 -43 411 C-42.67 411.99 -42.34 412.98 -42 414 C-41.01 414.33 -40.02 414.66 -39 415 C-39 415.66 -39 416.32 -39 417 C-38.01 417.33 -37.02 417.66 -36 418 C-35.34 402.16 -34.68 386.32 -34 370 C-33.34 370 -32.68 370 -32 370 C-32.08189787 338.49133356 -32.17390555 306.98271707 -32.28005161 275.47412362 C-32.29257067 271.75529165 -32.30500341 268.03645939 -32.31738281 264.31762695 C-32.3210818 263.20708559 -32.3210818 263.20708559 -32.32485552 262.07410904 C-32.36459264 250.08209259 -32.39733576 238.09006671 -32.42749982 226.0980228 C-32.45860024 213.79552526 -32.49720359 201.49306782 -32.54279006 189.19061536 C-32.57068835 181.59771728 -32.59271556 174.00484858 -32.60726251 166.411913 C-32.61903856 160.59226907 -32.64124724 154.77269451 -32.66738319 148.95309639 C-32.67647165 146.56378481 -32.68215214 144.17445753 -32.68421364 141.78512955 C-32.68752717 138.5287455 -32.70298031 135.27263931 -32.7215271 132.01631165 C-32.718625 130.59072519 -32.718625 130.59072519 -32.71566427 129.13633901 C-32.75447091 124.59401404 -32.98563339 121.16092575 -35 117 C-35.1953125 114.10546875 -35.1953125 114.10546875 -35.125 111.1875 C-35.10695313 110.21167969 -35.08890625 109.23585938 -35.0703125 108.23046875 C-35.03550781 107.12638672 -35.03550781 107.12638672 -35 106 C-35.99 105.67 -36.98 105.34 -38 105 C-38 102.69 -38 100.38 -38 98 C-38.99 97.67 -39.98 97.34 -41 97 C-41 95.02 -41 93.04 -41 91 C-41.99 90.67 -42.98 90.34 -44 90 C-44 88.68 -44 87.36 -44 86 C-44.99 85.67 -45.98 85.34 -47 85 C-47 83.68 -47 82.36 -47 81 C-47.99 80.67 -48.98 80.34 -50 80 C-50 78.02 -50 76.04 -50 74 C-50.99 73.67 -51.98 73.34 -53 73 C-53 71.68 -53 70.36 -53 69 C-53.99 68.67 -54.98 68.34 -56 68 C-56 67.34 -56 66.68 -56 66 C-56.99 65.67 -57.98 65.34 -59 65 C-59 63.68 -59 62.36 -59 61 C-59.99 60.67 -60.98 60.34 -62 60 C-62.33 59.01 -62.66 58.02 -63 57 C-63.66 56.67 -64.32 56.34 -65 56 C-65.02688151 54.35425434 -65.04634123 52.70838587 -65.0625 51.0625 C-65.07410156 50.14597656 -65.08570313 49.22945312 -65.09765625 48.28515625 C-65 46 -65 46 -64 45 C-58.7331718 44.43737147 -55.65876049 45.90927972 -51.125 48.5 C-50.53203125 48.83386719 -49.9390625 49.16773438 -49.328125 49.51171875 C-47.87895283 50.32979982 -46.43853019 51.16334743 -45 52 C-45 52.66 -45 53.32 -45 54 C-44.01 54 -43.02 54 -42 54 C-42 54.99 -42 55.98 -42 57 C-41.01 57 -40.02 57 -39 57 C-39 57.66 -39 58.32 -39 59 C-38.071875 59.144375 -37.14375 59.28875 -36.1875 59.4375 C-33 60 -33 60 -30 61 C-30 61.66 -30 62.32 -30 63 C-29.01 63.33 -28.02 63.66 -27 64 C-27 64.99 -27 65.98 -27 67 C-25.68 67 -24.36 67 -23 67 C-23.14133499 65.22880197 -23.28823208 63.45804713 -23.4375 61.6875 C-23.51871094 60.70136719 -23.59992188 59.71523437 -23.68359375 58.69921875 C-23.91812559 55.90624401 -23.91812559 55.90624401 -25 53 C-24.34 53 -23.68 53 -23 53 C-23.01160156 52.15695313 -23.02320313 51.31390625 -23.03515625 50.4453125 C-23.04869141 48.80175781 -23.04869141 48.80175781 -23.0625 47.125 C-23.07410156 46.03445312 -23.08570313 44.94390625 -23.09765625 43.8203125 C-23 41 -23 41 -22 39 C-21.34 39 -20.68 39 -20 39 C-20.061875 37.824375 -20.061875 37.824375 -20.125 36.625 C-20 34 -20 34 -18 32 C-17.67835637 29.70757176 -17.67835637 29.70757176 -17.69140625 27.0546875 C-17.66626953 26.05953125 -17.64113281 25.064375 -17.61523438 24.0390625 C-17.58046968 21.95318062 -17.54913952 19.86723826 -17.52148438 17.78125 C-17.35746049 11.55634368 -16.88988246 6.57844727 -14 1 C-11.9140625 -0.25390625 -11.9140625 -0.25390625 -9.625 -0.5625 C-8.83480469 -0.67464844 -8.04460937 -0.78679688 -7.23046875 -0.90234375 C-4.66236747 -1.01478251 -2.45087629 -0.79060526 0 0 Z M24 572 C20.8447368 573.60094127 20.8447368 573.60094127 20.56917667 575.99029446 C20.54361415 576.81394025 20.51805162 577.63758604 20.49171448 578.4861908 C20.4566854 579.433788 20.42165632 580.38138521 20.38556576 581.35769749 C20.36346822 582.40488925 20.34137068 583.45208101 20.31860352 584.53100586 C20.28544572 585.63818183 20.25228792 586.7453578 20.21812534 587.88608456 C19.84293496 601.99030578 19.87162996 616.10079431 19.89860606 630.20877957 C19.90497848 634.12176403 19.90545412 638.0347498 19.90663147 641.94773865 C19.90970476 649.31343461 19.91786249 656.67911522 19.92798096 664.04480451 C19.93926857 672.44909163 19.94468398 680.85337959 19.94967639 689.25767243 C19.96004983 706.50512374 19.97756927 723.75256023 20 741 C19.34 741 18.68 741 18 741 C18 800.73 18 860.46 18 922 C18.66 922 19.32 922 20 922 C20.33 923.65 20.66 925.3 21 927 C22.98491642 926.73323796 22.98491642 926.73323796 25 926 C25.33 925.01 25.66 924.02 26 923 C26.66 922.67 27.32 922.34 28 922 C28 921.01 28 920.02 28 919 C28.99 918.67 29.98 918.34 31 918 C31.495 917.505 31.99 917.01 32.5 916.5 C34 915 34 915 37 914 C37 913.34 37 912.68 37 912 C37.7425 911.7525 38.485 911.505 39.25 911.25 C42.24973455 909.8864843 43.92077267 908.54127785 46 906 C46 905.01 46 904.02 46 903 C46.99 902.67 47.98 902.34 49 902 C50.35573748 900.68945377 51.68612831 899.35251497 53 898 C53.825 897.360625 54.65 896.72125 55.5 896.0625 C58.0855584 894.0810472 58.0855584 894.0810472 60 891.4375 C62.13352115 888.8372711 64.0957707 887.63828319 67 886 C69.40879165 883.93532144 69.96331553 883.11005341 71 880 C72.66270287 878.66172696 74.32916181 877.32810215 76 876 C76 875.34 76 874.68 76 874 C76.99 874 77.98 874 79 874 C79 873.01 79 872.02 79 871 C79.99 871 80.98 871 82 871 C82.33 870.01 82.66 869.02 83 868 C83.66 867.67 84.32 867.34 85 867 C85 866.34 85 865.68 85 865 C85.8353125 864.62875 85.8353125 864.62875 86.6875 864.25 C90.55701002 862.15837296 94.11809266 859.33694534 97 856 C97 855.34 97 854.68 97 854 C97.8353125 853.62875 97.8353125 853.62875 98.6875 853.25 C102.62640804 851.12086052 105.55694029 849.32917913 107 845 C108.64333504 843.96210419 110.31243867 842.96432076 112 842 C113.79385992 840.5420814 113.79385992 840.5420814 115 839 C115 838.34 115 837.68 115 837 C115.99 837 116.98 837 118 837 C118.33 836.01 118.66 835.02 119 834 C119.66 833.67 120.32 833.34 121 833 C121 832.34 121 831.68 121 831 C121.99 830.67 122.98 830.34 124 830 C124 829.34 124 828.68 124 828 C124.99 828 125.98 828 127 828 C127 827.01 127 826.02 127 825 C127.99 825 128.98 825 130 825 C130 824.01 130 823.02 130 822 C130.99 822 131.98 822 133 822 C134.72943475 820.68732044 134.72943475 820.68732044 136 819 C136 818.34 136 817.68 136 817 C136.99 816.67 137.98 816.34 139 816 C140.7087646 814.62485459 140.7087646 814.62485459 142 813 C142 812.34 142 811.68 142 811 C142.99 810.67 143.98 810.34 145 810 C145 809.34 145 808.68 145 808 C145.99 808 146.98 808 148 808 C148 807.34 148 806.68 148 806 C148.99 805.67 149.98 805.34 151 805 C151 804.34 151 803.68 151 803 C151.99 803 152.98 803 154 803 C154 801.68 154 800.36 154 799 C154.556875 798.7525 155.11375 798.505 155.6875 798.25 C159.44536743 796.21872031 162.32981991 793.83772511 165 790.5 C167 788 167 788 169.75 785.8125 C170.4925 785.214375 171.235 784.61625 172 784 C172 783.34 172 782.68 172 782 C172.99 782 173.98 782 175 782 C175 781.01 175 780.02 175 779 C175.99 778.67 176.98 778.34 178 778 C179.7087646 776.62485459 179.7087646 776.62485459 181 775 C181 774.34 181 773.68 181 773 C183 772 185 771 187 770 C187 769.34 187 768.68 187 768 C187.99 767.67 188.98 767.34 190 767 C191.7087646 765.62485459 191.7087646 765.62485459 193 764 C193 763.34 193 762.68 193 762 C193.99 761.67 194.98 761.34 196 761 C197.35368596 759.68733482 198.68799596 758.35432675 200 757 C200.66 756.67 201.32 756.34 202 756 C202 755.01 202 754.02 202 753 C202.99 752.67 203.98 752.34 205 752 C205 751.34 205 750.68 205 750 C207 749 209 748 211 747 C211 745.02 211 743.04 211 741 C210.34 741 209.68 741 209 741 C208.34 739.68 207.68 738.36 207 737 C206.34 737 205.68 737 205 737 C204.67 736.01 204.34 735.02 204 734 C203.34 734 202.68 734 202 734 C202 733.01 202 732.02 202 731 C200.75 729.25 200.75 729.25 199 728 C198.01 728 197.02 728 196 728 C196 727.34 196 726.68 196 726 C195.01 726 194.02 726 193 726 C193 725.34 193 724.68 193 724 C191.16666667 721.83333333 191.16666667 721.83333333 189 720 C188.34 720 187.68 720 187 720 C187 719.34 187 718.68 187 718 C184.36315253 715.60179695 184.36315253 715.60179695 181 715 C181 714.34 181 713.68 181 713 C180.34 712.67 179.68 712.34 179 712 C178.67 711.01 178.34 710.02 178 709 C176.68732044 707.27056525 176.68732044 707.27056525 175 706 C174.01 706 173.02 706 172 706 C172 705.34 172 704.68 172 704 C170.33720673 702.9935725 168.67016516 701.99414593 167 701 C166.34 700.01 165.68 699.02 165 698 C164.34 698 163.68 698 163 698 C163 697.34 163 696.68 163 696 C160.36315253 693.60179695 160.36315253 693.60179695 157 693 C157 692.34 157 691.68 157 691 C156.34 690.67 155.68 690.34 155 690 C154.67 689.01 154.34 688.02 154 687 C153.01 687 152.02 687 151 687 C151 686.34 151 685.68 151 685 C148.36315253 682.60179695 148.36315253 682.60179695 145 682 C145 681.34 145 680.68 145 680 C143.34997172 678.64613064 141.6825613 677.31321858 140 676 C139.67 675.34 139.34 674.68 139 674 C138.01 674 137.02 674 136 674 C135.67 673.01 135.34 672.02 135 671 C134.34 671 133.68 671 133 671 C133 670.34 133 669.68 133 669 C130.36315253 666.60179695 130.36315253 666.60179695 127 666 C127 665.34 127 664.68 127 664 C124.36315253 661.60179695 124.36315253 661.60179695 121 661 C121 660.01 121 659.02 121 658 C119.37064759 656.62131719 117.70250393 655.28725907 116 654 C115.67 653.34 115.34 652.68 115 652 C114.01 652 113.02 652 112 652 C112 651.34 112 650.68 112 650 C111.01 650 110.02 650 109 650 C109 649.34 109 648.68 109 648 C107.16666667 645.83333333 107.16666667 645.83333333 105 644 C104.34 644 103.68 644 103 644 C103 643.34 103 642.68 103 642 C101.34577678 640.55295275 101.34577678 640.55295275 99.25 639.125 C96.2278158 636.93285231 93.55466511 634.73714119 91 632 C89.70529025 630.62913085 88.37849103 629.28659163 87 628 C86.34 628 85.68 628 85 628 C85 627.34 85 626.68 85 626 C83.16666667 623.83333333 83.16666667 623.83333333 81 622 C80.34 622 79.68 622 79 622 C79 621.34 79 620.68 79 620 C76.36315253 617.60179695 76.36315253 617.60179695 73 617 C73 616.34 73 615.68 73 615 C71.3603279 613.63360658 69.68889872 612.3050581 68 611 C67.34 610.319375 66.68 609.63875 66 608.9375 C64.0290823 606.87276082 64.0290823 606.87276082 61.3125 605.4375 C59 604 59 604 58 601 C57.01 601 56.02 601 55 601 C55 600.01 55 599.02 55 598 C52.38148757 595.57286241 52.38148757 595.57286241 49 595 C49 594.34 49 593.68 49 593 C47.35648543 591.63823078 45.68477344 590.31037934 44 589 C43.113125 588.0925 42.22625 587.185 41.3125 586.25 C39.29883759 583.76754835 39.29883759 583.76754835 37 584 C37 583.34 37 582.68 37 582 C36.44570313 581.74605469 35.89140625 581.49210938 35.3203125 581.23046875 C34.59585937 580.88628906 33.87140625 580.54210937 33.125 580.1875 C32.40570312 579.85105469 31.68640625 579.51460937 30.9453125 579.16796875 C29 578 29 578 27 575 C26.34 575 25.68 575 25 575 C24.67 574.01 24.34 573.02 24 572 Z M-39 574 C-39.5775 574.598125 -40.155 575.19625 -40.75 575.8125 C-43.39023479 578.37939493 -45.63539646 579.12149488 -49.09765625 580.19140625 C-51.29570686 581.1256906 -52.49448948 582.15680488 -54 584 C-54 584.66 -54 585.32 -54 586 C-54.99 586 -55.98 586 -57 586 C-58.75 587.25 -58.75 587.25 -60 589 C-60 589.99 -60 590.98 -60 592 C-60.99 592 -61.98 592 -63 592 C-63 592.99 -63 593.98 -63 595 C-63.556875 595.2475 -64.11375 595.495 -64.6875 595.75 C-68.55701002 597.84162704 -72.11809266 600.66305466 -75 604 C-75 604.66 -75 605.32 -75 606 C-75.99 606 -76.98 606 -78 606 C-78.556875 606.70125 -79.11375 607.4025 -79.6875 608.125 C-82.2680636 611.33326825 -85.02744064 613.34197081 -88.390625 615.66796875 C-88.92171875 616.10753906 -89.4528125 616.54710937 -90 617 C-90 617.66 -90 618.32 -90 619 C-90.99 619 -91.98 619 -93 619 C-93 619.99 -93 620.98 -93 622 C-93.99 622.33 -94.98 622.66 -96 623 C-97.7087646 624.37514541 -97.7087646 624.37514541 -99 626 C-99 626.66 -99 627.32 -99 628 C-99.99 628 -100.98 628 -102 628 C-102 628.66 -102 629.32 -102 630 C-102.99 630 -103.98 630 -105 630 C-106.37868281 631.62935241 -107.71274093 633.29749607 -109 635 C-109.99 635.495 -109.99 635.495 -111 636 C-111 636.66 -111 637.32 -111 638 C-112.98 638.66 -114.96 639.32 -117 640 C-117 640.99 -117 641.98 -117 643 C-118.485 643.495 -118.485 643.495 -120 644 C-121.35573748 645.31054623 -122.68612831 646.64748503 -124 648 C-124.9075 648.70125 -125.815 649.4025 -126.75 650.125 C-127.4925 650.74375 -128.235 651.3625 -129 652 C-129 652.66 -129 653.32 -129 654 C-129.99 654 -130.98 654 -132 654 C-132.495 655.485 -132.495 655.485 -133 657 C-133.99 657.495 -133.99 657.495 -135 658 C-135 658.66 -135 659.32 -135 660 C-135.99 660 -136.98 660 -138 660 C-139.36639342 661.6396721 -140.6949419 663.31110128 -142 665 C-143.36125 666.0828125 -143.36125 666.0828125 -144.75 667.1875 C-145.4925 667.785625 -146.235 668.38375 -147 669 C-147 669.66 -147 670.32 -147 671 C-149 672 -151 673 -153 674 C-153 674.66 -153 675.32 -153 676 C-154.485 676.495 -154.485 676.495 -156 677 C-157.35368596 678.31266518 -158.68799596 679.64567325 -160 681 C-160.99 681.495 -160.99 681.495 -162 682 C-162 682.66 -162 683.32 -162 684 C-162.99 684 -163.98 684 -165 684 C-166.36639342 685.6396721 -167.6949419 687.31110128 -169 689 C-171.72011163 691.3883907 -173.55863154 692.85287718 -177 694 C-177.495 695.485 -177.495 695.485 -178 697 C-179.66270287 698.33827304 -181.32916181 699.67189785 -183 701 C-183 701.66 -183 702.32 -183 703 C-183.99 703.33 -184.98 703.66 -186 704 C-186 704.66 -186 705.32 -186 706 C-186.99 706 -187.98 706 -189 706 C-191.39971554 707.93823179 -191.99796679 708.99390037 -193 712 C-195.02239937 713.40242493 -197.12813122 714.53598759 -199.28515625 715.71875 C-199.85105469 716.1415625 -200.41695312 716.564375 -201 717 C-201 717.99 -201 718.98 -201 720 C-201.99 720.33 -202.98 720.66 -204 721 C-204.61875 721.61875 -205.2375 722.2375 -205.875 722.875 C-208 725 -208 725 -210.75 726.625 C-211.4925 727.07875 -212.235 727.5325 -213 728 C-213 728.66 -213 729.32 -213 730 C-213.99 730.33 -214.98 730.66 -216 731 C-217.7087646 732.37514541 -217.7087646 732.37514541 -219 734 C-219 734.66 -219 735.32 -219 736 C-220.98 736.99 -220.98 736.99 -223 738 C-223 738.99 -223 739.98 -223 741 C-223.66 741 -224.32 741 -225 741 C-225.33498301 743.33165034 -225.33498301 743.33165034 -225 746 C-223.2287382 748.35522225 -223.2287382 748.35522225 -221 750 C-220.34 750 -219.68 750 -219 750 C-219 750.66 -219 751.32 -219 752 C-218.34 752.33 -217.68 752.66 -217 753 C-216.67 753.99 -216.34 754.98 -216 756 C-214.68732044 757.72943475 -214.68732044 757.72943475 -213 759 C-212.01 759 -211.02 759 -210 759 C-210 759.66 -210 760.32 -210 761 C-209.195625 761.474375 -208.39125 761.94875 -207.5625 762.4375 C-205 764 -205 764 -204 767 C-202.35360035 768.35827971 -200.68704193 769.69254251 -199 771 C-198.505 771.99 -198.505 771.99 -198 773 C-197.01 773 -196.02 773 -195 773 C-195 773.99 -195 774.98 -195 776 C-194.01 776 -193.02 776 -192 776 C-192 776.99 -192 777.98 -192 779 C-191.34 779.33 -190.68 779.66 -190 780 C-189.67 780.99 -189.34 781.98 -189 783 C-185.99152582 784.22520264 -185.99152582 784.22520264 -183 785 C-183 785.99 -183 786.98 -183 788 C-182.01 788 -181.02 788 -180 788 C-180 788.99 -180 789.98 -180 791 C-179.01 791 -178.02 791 -177 791 C-176.67 791.99 -176.34 792.98 -176 794 C-175.34 794 -174.68 794 -174 794 C-174 794.66 -174 795.32 -174 796 C-173.01 796 -172.02 796 -171 796 C-171 796.66 -171 797.32 -171 798 C-170.34 798.33 -169.68 798.66 -169 799 C-168.67 799.99 -168.34 800.98 -168 802 C-166.27261916 803.49295255 -166.27261916 803.49295255 -164.1875 804.875 C-160.84675261 807.28081452 -158.4559293 809.6669531 -156 813 C-153.97959252 815.27191416 -153.97959252 815.27191416 -152 817 C-151.34 817 -150.68 817 -150 817 C-150 817.66 -150 818.32 -150 819 C-148.72943475 820.68732044 -148.72943475 820.68732044 -147 822 C-146.01 822 -145.02 822 -144 822 C-144 822.99 -144 823.98 -144 825 C-142.53937171 826.68108991 -142.53937171 826.68108991 -140.625 828.1875 C-139.99851562 828.71730469 -139.37203125 829.24710938 -138.7265625 829.79296875 C-137.07791367 831.19098815 -137.07791367 831.19098815 -135 831 C-134.505 832.485 -134.505 832.485 -134 834 C-133.34 834 -132.68 834 -132 834 C-131.67 835.32 -131.34 836.64 -131 838 C-130.34 838 -129.68 838 -129 838 C-129 838.66 -129 839.32 -129 840 C-128.01 840 -127.02 840 -126 840 C-126 840.66 -126 841.32 -126 842 C-124.34614767 843.34919532 -122.678298 844.68133728 -121 846 C-120.01 847.485 -120.01 847.485 -119 849 C-118.34 849 -117.68 849 -117 849 C-117 849.99 -117 850.98 -117 852 C-116.01 852 -115.02 852 -114 852 C-114 852.66 -114 853.32 -114 854 C-113.01 854 -112.02 854 -111 854 C-111 854.66 -111 855.32 -111 856 C-109.16666667 858.16666667 -109.16666667 858.16666667 -107 860 C-106.34 860 -105.68 860 -105 860 C-105 860.66 -105 861.32 -105 862 C-103.33784732 863.33895632 -101.67036393 864.67130142 -100 866 C-99.29875 866.9075 -98.5975 867.815 -97.875 868.75 C-96.946875 869.86375 -96.946875 869.86375 -96 871 C-95.01 871 -94.02 871 -93 871 C-93 871.66 -93 872.32 -93 873 C-91.72943475 874.68732044 -91.72943475 874.68732044 -90 876 C-89.01 876 -88.02 876 -87 876 C-87 876.66 -87 877.32 -87 878 C-86.34 878.33 -85.68 878.66 -85 879 C-84.67 879.99 -84.34 880.98 -84 882 C-82.44152856 883.65899675 -82.44152856 883.65899675 -80.5625 885.1875 C-79.94503906 885.71730469 -79.32757813 886.24710938 -78.69140625 886.79296875 C-77.07499198 888.1936275 -77.07499198 888.1936275 -75 888 C-75 888.66 -75 889.32 -75 890 C-74.34 890.33 -73.68 890.66 -73 891 C-72.67 891.99 -72.34 892.98 -72 894 C-71.34 894.33 -70.68 894.66 -70 895 C-69.67 895.99 -69.34 896.98 -69 898 C-68.01 898 -67.02 898 -66 898 C-66 898.99 -66 899.98 -66 901 C-65.01 901 -64.02 901 -63 901 C-63 901.66 -63 902.32 -63 903 C-61.16666667 905.16666667 -61.16666667 905.16666667 -59 907 C-58.34 907 -57.68 907 -57 907 C-57 907.99 -57 908.98 -57 910 C-55.36101052 911.29474469 -55.36101052 911.29474469 -53.25 912.375 C-49.64267406 914.48985834 -47.46081264 916.57243954 -45 920 C-42.97959252 922.27191416 -42.97959252 922.27191416 -41 924 C-40.34 924 -39.68 924 -39 924 C-39 924.66 -39 925.32 -39 926 C-37.68 926.33 -36.36 926.66 -35 927 C-32.35195127 924.4555954 -31.77318394 922.41743031 -31.63923645 918.87445068 C-31.63054648 917.16077542 -31.63849948 915.44696798 -31.65942383 913.73339844 C-31.65898575 912.79647156 -31.65854767 911.85954468 -31.65809631 910.89422607 C-31.66018542 907.79906334 -31.68352251 904.70444305 -31.70703125 901.609375 C-31.71262676 899.46275122 -31.71689707 897.31612361 -31.71989441 895.16949463 C-31.73134665 889.52068497 -31.76081729 883.87210687 -31.79400635 878.22338867 C-31.82469894 872.45885348 -31.83839803 866.69428086 -31.85351562 860.9296875 C-31.88568646 849.61968996 -31.93688756 838.30986424 -32 827 C-32.66 827 -33.32 827 -34 827 C-33.99907821 826.33403588 -33.99815641 825.66807177 -33.99720669 824.98192692 C-33.9675503 803.17545731 -33.94851882 781.36898673 -33.9375 759.5625 C-33.93684855 758.31032716 -33.93684855 758.31032716 -33.93618393 757.03285789 C-33.91259852 710.43587732 -34.00606268 663.84475378 -34.5 617.25 C-34.51195782 616.12111988 -34.52391563 614.99223976 -34.53623581 613.82915115 C-34.67798877 600.55260824 -34.83144909 587.27622954 -35 574 C-36.32 574 -37.64 574 -39 574 Z " fill="#FEFEFE" transform="translate(549,15)"/>
<path d="M0 0 C0 0.99 0 1.98 0 3 C-0.99 3 -1.98 3 -3 3 C-3.33 3.99 -3.66 4.98 -4 6 C-4.66 6 -5.32 6 -6 6 C-6 6.66 -6 7.32 -6 8 C-6.99 7.67 -7.98 7.34 -9 7 C-7.88121617 5.82737096 -6.75476949 4.66204862 -5.625 3.5 C-4.68527344 2.52546875 -4.68527344 2.52546875 -3.7265625 1.53125 C-2 0 -2 0 0 0 Z " fill="#FFFFFF" transform="translate(753,858)"/>
</svg>
