<?xml version="1.0" encoding="UTF-8"?>
<svg version="1.1" xmlns="http://www.w3.org/2000/svg" width="300" height="300">
<path d="M0 0 C3.22028873 2.11237146 5.0087277 3.55786636 6.91796875 6.9140625 C7.86034352 13.28521457 6.51290917 19.92281735 5.54296875 26.2265625 C5.40721436 27.14139404 5.27145996 28.05622559 5.1315918 28.9987793 C4.13632682 35.65016281 3.07143465 42.28825184 1.91796875 48.9140625 C2.4692041 48.85871338 3.02043945 48.80336426 3.58837891 48.74633789 C15.25097984 47.59113695 26.87959166 46.66441398 38.59423828 46.25610352 C43.44489293 46.07717473 48.10840173 45.60191119 52.91796875 44.9140625 C56.24887365 44.70148258 59.58254038 44.59409749 62.91796875 44.4765625 C70.99287402 44.14116337 79.04923013 43.68544438 87.10546875 43.0390625 C88.4831543 42.93960327 88.4831543 42.93960327 89.88867188 42.83813477 C95.67838479 42.34709919 100.98336719 41.22209577 106.54394531 39.53076172 C113.7210166 37.66637648 119.82856306 41.49675616 125.91796875 44.9140625 C126.90796875 45.5740625 127.89796875 46.2340625 128.91796875 46.9140625 C128.91796875 47.5740625 128.91796875 48.2340625 128.91796875 48.9140625 C129.51609375 49.1615625 130.11421875 49.4090625 130.73046875 49.6640625 C133.43487457 51.20943726 134.48539113 52.12053615 135.91796875 54.9140625 C136.16320109 57.9351162 136.06225461 60.89080532 135.91796875 63.9140625 C129.18187478 68.04721618 124.99320112 68.15987359 117.29296875 67.1640625 C104.42429444 65.84225966 91.65568663 65.68967731 78.73046875 65.7265625 C77.72494965 65.72919098 76.71943054 65.73181946 75.68344116 65.73452759 C52.06926877 65.67500439 52.06926877 65.67500439 28.54296875 67.41796875 C22.32371173 68.14419171 16.07956617 68.29244094 9.82617188 68.51953125 C5.10976238 68.70857876 0.55982746 68.97788931 -4.08203125 69.9140625 C-3.42203125 70.5946875 -2.76203125 71.2753125 -2.08203125 71.9765625 C0.39056938 75.60819468 0.39721914 77.600809 -0.08203125 81.9140625 C-0.74203125 82.9040625 -1.40203125 83.8940625 -2.08203125 84.9140625 C-2.74203125 84.9140625 -3.40203125 84.9140625 -4.08203125 84.9140625 C-4.08203125 85.5740625 -4.08203125 86.2340625 -4.08203125 86.9140625 C-4.74203125 86.9140625 -5.40203125 86.9140625 -6.08203125 86.9140625 C-6.08203125 87.5740625 -6.08203125 88.2340625 -6.08203125 88.9140625 C-6.74203125 88.9140625 -7.40203125 88.9140625 -8.08203125 88.9140625 C-8.74203125 90.5640625 -9.40203125 92.2140625 -10.08203125 93.9140625 C-10.74203125 93.9140625 -11.40203125 93.9140625 -12.08203125 93.9140625 C-12.39140625 94.5328125 -12.70078125 95.1515625 -13.01953125 95.7890625 C-13.70703125 97.1640625 -14.39453125 98.5390625 -15.08203125 99.9140625 C-15.74203125 99.9140625 -16.40203125 99.9140625 -17.08203125 99.9140625 C-17.08203125 100.5740625 -17.08203125 101.2340625 -17.08203125 101.9140625 C-17.74203125 101.9140625 -18.40203125 101.9140625 -19.08203125 101.9140625 C-19.33210937 102.48253906 -19.5821875 103.05101563 -19.83984375 103.63671875 C-21.26602787 106.25138963 -22.93902982 108.15985033 -24.95703125 110.3515625 C-25.75367188 111.22167969 -26.5503125 112.09179688 -27.37109375 112.98828125 C-28.26570313 113.95378906 -29.1603125 114.91929687 -30.08203125 115.9140625 C-31.64118773 117.59736845 -33.20013622 119.28086366 -34.75830078 120.96508789 C-35.78077686 122.06893695 -36.80509052 123.17108776 -37.83154297 124.27124023 C-40.25828167 126.8834284 -42.58738774 129.52086204 -44.81640625 132.3046875 C-45.5640625 133.16578125 -46.31171875 134.026875 -47.08203125 134.9140625 C-47.74203125 134.9140625 -48.40203125 134.9140625 -49.08203125 134.9140625 C-49.39140625 135.5328125 -49.70078125 136.1515625 -50.01953125 136.7890625 C-50.70703125 138.1640625 -51.39453125 139.5390625 -52.08203125 140.9140625 C-52.74203125 140.9140625 -53.40203125 140.9140625 -54.08203125 140.9140625 C-54.08203125 141.9040625 -54.08203125 142.8940625 -54.08203125 143.9140625 C-53.30472656 144.05134766 -53.30472656 144.05134766 -52.51171875 144.19140625 C-49.17702161 145.18323739 -46.24685932 146.81900692 -43.20703125 148.4765625 C-42.55081787 148.83081299 -41.89460449 149.18506348 -41.21850586 149.55004883 C-31.67738304 154.72677347 -22.22721772 160.06114316 -13.08203125 165.9140625 C-8.65877416 162.21296984 -4.52645287 158.42509863 -0.5625 154.234375 C0.91796875 152.9140625 0.91796875 152.9140625 2.91796875 152.9140625 C3.18609375 152.3159375 3.45421875 151.7178125 3.73046875 151.1015625 C4.91714281 148.91558396 6.01395988 147.50073656 7.91796875 145.9140625 C8.57796875 145.9140625 9.23796875 145.9140625 9.91796875 145.9140625 C9.91796875 145.2540625 9.91796875 144.5940625 9.91796875 143.9140625 C10.57796875 143.9140625 11.23796875 143.9140625 11.91796875 143.9140625 C12.20671875 143.3159375 12.49546875 142.7178125 12.79296875 142.1015625 C13.91796875 139.9140625 13.91796875 139.9140625 15.91796875 136.9140625 C16.57796875 136.9140625 17.23796875 136.9140625 17.91796875 136.9140625 C17.91796875 136.2540625 17.91796875 135.5940625 17.91796875 134.9140625 C18.57796875 134.9140625 19.23796875 134.9140625 19.91796875 134.9140625 C20.22734375 134.2953125 20.53671875 133.6765625 20.85546875 133.0390625 C21.54296875 131.6640625 22.23046875 130.2890625 22.91796875 128.9140625 C23.57796875 128.9140625 24.23796875 128.9140625 24.91796875 128.9140625 C25.25828125 127.9240625 25.25828125 127.9240625 25.60546875 126.9140625 C26.74270398 124.31466769 27.92516139 122.45557434 29.54296875 120.1640625 C32.30881465 115.86435515 32.8587921 111.93508819 31.91796875 106.9140625 C31.25796875 105.9240625 30.59796875 104.9340625 29.91796875 103.9140625 C30.29296875 101.2265625 30.29296875 101.2265625 30.91796875 98.9140625 C41.23353153 98.05443227 46.96563842 101.90000138 54.796875 108.23828125 C56.64101152 109.69525099 58.49305128 110.9779967 60.48046875 112.2265625 C61.28484375 112.7834375 62.08921875 113.3403125 62.91796875 113.9140625 C62.91796875 114.5740625 62.91796875 115.2340625 62.91796875 115.9140625 C63.57796875 115.9140625 64.23796875 115.9140625 64.91796875 115.9140625 C64.91796875 116.5740625 64.91796875 117.2340625 64.91796875 117.9140625 C65.57796875 117.9140625 66.23796875 117.9140625 66.91796875 117.9140625 C69.01975508 121.32946529 69.48618101 123.93657665 68.91796875 127.9140625 C65.58553877 131.68433 61.91810266 134.46428473 57.73046875 137.2265625 C56.68503906 137.92394531 55.63960937 138.62132812 54.5625 139.33984375 C51.91796875 140.9140625 51.91796875 140.9140625 49.91796875 140.9140625 C49.91796875 141.5740625 49.91796875 142.2340625 49.91796875 142.9140625 C48.2734375 144.38671875 48.2734375 144.38671875 46.10546875 145.9765625 C45.39777344 146.50378906 44.69007813 147.03101563 43.9609375 147.57421875 C41.91796875 148.9140625 41.91796875 148.9140625 38.91796875 149.9140625 C38.91796875 150.5740625 38.91796875 151.2340625 38.91796875 151.9140625 C37.45703125 153.421875 37.45703125 153.421875 35.54296875 155.0390625 C34.91648438 155.57789063 34.29 156.11671875 33.64453125 156.671875 C31.91796875 157.9140625 31.91796875 157.9140625 29.91796875 157.9140625 C29.91796875 158.5740625 29.91796875 159.2340625 29.91796875 159.9140625 C28.23828125 161.640625 28.23828125 161.640625 26.04296875 163.5390625 C25.32367188 164.17070312 24.604375 164.80234375 23.86328125 165.453125 C21.91796875 166.9140625 21.91796875 166.9140625 19.91796875 166.9140625 C19.66789063 167.501875 19.4178125 168.0896875 19.16015625 168.6953125 C17.7536999 171.20747352 16.25155883 172.58051602 14.04296875 174.4140625 C11.76159238 176.33587412 9.62795683 178.21170632 7.54296875 180.3515625 C5.91796875 181.9140625 5.91796875 181.9140625 3.91796875 181.9140625 C3.91796875 182.5740625 3.91796875 183.2340625 3.91796875 183.9140625 C1.76553091 185.74109711 -0.39565295 187.46324207 -2.64453125 189.1640625 C-3.93329753 190.15363932 -5.22106895 191.14451322 -6.5078125 192.13671875 C-7.12736816 192.61383301 -7.74692383 193.09094727 -8.38525391 193.58251953 C-10.43029266 195.18736001 -12.38957076 196.87447077 -14.33203125 198.6015625 C-17.08203125 200.9140625 -17.08203125 200.9140625 -19.08203125 200.9140625 C-19.08203125 201.5740625 -19.08203125 202.2340625 -19.08203125 202.9140625 C-20.98046875 204.640625 -20.98046875 204.640625 -23.45703125 206.5390625 C-24.26914063 207.17070312 -25.08125 207.80234375 -25.91796875 208.453125 C-28.08203125 209.9140625 -28.08203125 209.9140625 -30.08203125 209.9140625 C-30.08203125 210.5740625 -30.08203125 211.2340625 -30.08203125 211.9140625 C-30.74203125 211.9140625 -31.40203125 211.9140625 -32.08203125 211.9140625 C-32.08203125 212.5740625 -32.08203125 213.2340625 -32.08203125 213.9140625 C-35.54356971 216.9140625 -35.54356971 216.9140625 -38.08203125 216.9140625 C-38.08203125 217.5740625 -38.08203125 218.2340625 -38.08203125 218.9140625 C-39.07203125 218.9140625 -40.06203125 218.9140625 -41.08203125 218.9140625 C-41.08203125 219.5740625 -41.08203125 220.2340625 -41.08203125 220.9140625 C-41.74203125 220.9140625 -42.40203125 220.9140625 -43.08203125 220.9140625 C-43.08203125 221.5740625 -43.08203125 222.2340625 -43.08203125 222.9140625 C-57.34472441 235.9140625 -57.34472441 235.9140625 -62.08203125 235.9140625 C-62.08203125 236.5740625 -62.08203125 237.2340625 -62.08203125 237.9140625 C-49.44131525 238.42270532 -37.29150131 237.01049321 -24.77392578 235.38037109 C-20.79508577 234.87781955 -16.81310703 234.4154618 -12.828125 233.96484375 C0.6394681 232.43750711 14.08131151 230.8478555 27.48046875 228.7890625 C29.03012329 228.55135132 29.03012329 228.55135132 30.61108398 228.30883789 C36.43867437 227.38563126 42.17180677 226.25424063 47.91796875 224.9140625 C47.25796875 223.9240625 46.59796875 222.9340625 45.91796875 221.9140625 C45.91796875 220.9240625 45.91796875 219.9340625 45.91796875 218.9140625 C45.25796875 218.9140625 44.59796875 218.9140625 43.91796875 218.9140625 C42.41015625 217.015625 42.41015625 217.015625 40.79296875 214.5390625 C40.25414062 213.72695312 39.7153125 212.91484375 39.16015625 212.078125 C37.91796875 209.9140625 37.91796875 209.9140625 37.91796875 207.9140625 C37.25796875 207.9140625 36.59796875 207.9140625 35.91796875 207.9140625 C33.62148226 205.3525968 32.91796875 204.43438678 32.91796875 200.9140625 C32.25796875 200.9140625 31.59796875 200.9140625 30.91796875 200.9140625 C26.91796875 195.50229779 26.91796875 195.50229779 26.91796875 192.9140625 C26.25796875 192.9140625 25.59796875 192.9140625 24.91796875 192.9140625 C24.91796875 192.2540625 24.91796875 191.5940625 24.91796875 190.9140625 C25.57796875 190.9140625 26.23796875 190.9140625 26.91796875 190.9140625 C26.91796875 190.2540625 26.91796875 189.5940625 26.91796875 188.9140625 C31.21748622 189.47690842 33.96468393 191.00882422 37.54296875 193.4140625 C40.39303181 195.31931014 42.66102368 196.82841414 45.91796875 197.9140625 C45.91796875 198.5740625 45.91796875 199.2340625 45.91796875 199.9140625 C48.88796875 200.9040625 48.88796875 200.9040625 51.91796875 201.9140625 C51.91796875 202.5740625 51.91796875 203.2340625 51.91796875 203.9140625 C53.18640625 204.254375 53.18640625 204.254375 54.48046875 204.6015625 C58.42183731 206.10644868 61.80558734 208.04109505 64.91796875 210.9140625 C64.91796875 211.5740625 64.91796875 212.2340625 64.91796875 212.9140625 C65.48 213.171875 66.04203125 213.4296875 66.62109375 213.6953125 C69.18501454 215.05576027 71.3702324 216.64195212 73.66796875 218.4140625 C74.4671875 219.0225 75.26640625 219.6309375 76.08984375 220.2578125 C76.693125 220.804375 77.29640625 221.3509375 77.91796875 221.9140625 C77.91796875 222.5740625 77.91796875 223.2340625 77.91796875 223.9140625 C78.57796875 223.9140625 79.23796875 223.9140625 79.91796875 223.9140625 C79.91796875 224.5740625 79.91796875 225.2340625 79.91796875 225.9140625 C80.57796875 225.9140625 81.23796875 225.9140625 81.91796875 225.9140625 C84.52831383 229.05162013 86.70303748 232.49008597 88.91796875 235.9140625 C89.33949219 236.54699219 89.76101562 237.17992187 90.1953125 237.83203125 C94.54706708 245.27106833 95.85427979 255.55467188 94.35546875 263.9765625 C93.13582652 268.19349543 91.00136931 270.83066194 87.91796875 273.9140625 C84.19828296 275.77390539 79.96820683 275.4872094 75.91796875 274.9140625 C72.85909578 272.66672726 71.36079867 271.17442458 70.10546875 267.6015625 C70.04359375 267.0446875 69.98171875 266.4878125 69.91796875 265.9140625 C69.25796875 265.9140625 68.59796875 265.9140625 67.91796875 265.9140625 C67.71042969 265.35460937 67.50289062 264.79515625 67.2890625 264.21875 C64.33103438 256.52045087 60.67729199 249.24263084 56.91796875 241.9140625 C48.34243592 243.18699315 39.78513272 244.57111711 31.23046875 245.9765625 C30.15474609 246.1509082 29.07902344 246.32525391 27.97070312 246.50488281 C26.95943359 246.67213867 25.94816406 246.83939453 24.90625 247.01171875 C23.99399658 247.16133057 23.08174316 247.31094238 22.1418457 247.46508789 C19.8908658 247.81871149 19.8908658 247.81871149 17.91796875 248.9140625 C15.61987339 249.22276188 13.32076746 249.42289898 11.01171875 249.6328125 C8.86352942 249.8062175 8.86352942 249.8062175 6.91796875 250.9140625 C4.04477857 251.3597985 1.17333027 251.77032425 -1.70703125 252.1640625 C-10.52960559 253.42397141 -19.20541145 255.1257326 -27.9152832 257.00244141 C-35.96155456 258.72161424 -44.03358857 260.1792842 -52.1574707 261.48217773 C-57.71426548 262.39973411 -63.07218655 263.65222656 -68.4909668 265.18701172 C-70.78921952 265.83189974 -73.08875617 266.42209231 -75.41015625 266.9765625 C-76.065 267.13382812 -76.71984375 267.29109375 -77.39453125 267.453125 C-78.70099068 267.76393591 -80.00831015 268.07115091 -81.31640625 268.375 C-84.61930443 269.17451107 -87.71194704 270.12243342 -90.80859375 271.50390625 C-95.21108206 273.40044357 -97.34552517 273.60161983 -102.08203125 272.9140625 C-108.2432713 267.87304791 -110.61392273 259.5257983 -111.3984375 251.796875 C-111.54154509 244.60333327 -111.54154509 244.60333327 -109.08203125 240.9140625 C-105.0213599 239.2303695 -100.82532966 238.39023144 -96.5234375 237.57421875 C-89.13299725 235.57584371 -84.26779382 231.95446569 -78.51953125 227.0390625 C-77.79056641 226.42675781 -77.06160156 225.81445312 -76.31054688 225.18359375 C-73.62240996 222.92371987 -70.93899708 220.65967647 -68.28955078 218.35449219 C-64.29268796 214.9140625 -64.29268796 214.9140625 -62.08203125 214.9140625 C-62.08203125 214.2540625 -62.08203125 213.5940625 -62.08203125 212.9140625 C-57.61144301 208.9140625 -57.61144301 208.9140625 -55.08203125 208.9140625 C-55.08203125 208.2540625 -55.08203125 207.5940625 -55.08203125 206.9140625 C-53.61328125 205.43359375 -53.61328125 205.43359375 -51.58203125 203.7265625 C-50.85886719 203.11039063 -50.13570313 202.49421875 -49.390625 201.859375 C-48.62878906 201.21742188 -47.86695312 200.57546875 -47.08203125 199.9140625 C-45.59924074 198.64745929 -44.11988368 197.37682192 -42.64453125 196.1015625 C-41.98582031 195.53824219 -41.32710938 194.97492188 -40.6484375 194.39453125 C-38.97183139 192.97937042 -38.97183139 192.97937042 -38.08203125 190.9140625 C-37.42203125 190.9140625 -36.76203125 190.9140625 -36.08203125 190.9140625 C-36.08203125 190.2540625 -36.08203125 189.5940625 -36.08203125 188.9140625 C-35.42203125 188.9140625 -34.76203125 188.9140625 -34.08203125 188.9140625 C-34.08203125 188.2540625 -34.08203125 187.5940625 -34.08203125 186.9140625 C-32.41536458 185.24739583 -30.74869792 183.58072917 -29.08203125 181.9140625 C-29.08203125 181.2540625 -29.08203125 180.5940625 -29.08203125 179.9140625 C-29.88640625 179.7078125 -30.69078125 179.5015625 -31.51953125 179.2890625 C-34.6039402 178.09858887 -36.51162931 176.99122828 -39.14453125 175.1015625 C-43.84289026 171.84212562 -48.73469363 169.93860596 -54.09375 168.00390625 C-57.08203125 166.9140625 -57.08203125 166.9140625 -60.51953125 165.2890625 C-65.16637356 163.49554442 -69.87060266 162.75838886 -74.77734375 161.953125 C-78.87071914 160.66608262 -80.55729869 159.38323205 -83.08203125 155.9140625 C-83.58962542 152.99987477 -83.78699694 150.8034896 -83.70703125 147.9140625 C-83.72636719 147.21539062 -83.74570313 146.51671875 -83.765625 145.796875 C-83.72876586 141.88980637 -83.17827082 140.04019217 -80.79296875 136.9140625 C-78.08203125 134.9140625 -78.08203125 134.9140625 -74.08203125 134.9140625 C-74.08203125 134.2540625 -74.08203125 133.5940625 -74.08203125 132.9140625 C-72.5078125 131.3984375 -72.5078125 131.3984375 -70.39453125 129.6640625 C-67.72853992 127.41330522 -65.37193034 125.21356705 -63.20703125 122.4765625 C-62.50578125 121.6309375 -61.80453125 120.7853125 -61.08203125 119.9140625 C-60.42203125 119.9140625 -59.76203125 119.9140625 -59.08203125 119.9140625 C-58.83066406 119.18832031 -58.57929687 118.46257812 -58.3203125 117.71484375 C-56.98431871 114.69305338 -55.39751336 112.62014936 -53.26953125 110.1015625 C-50.65461746 106.93614054 -48.30661527 103.81761714 -46.20703125 100.2890625 C-45.50578125 99.1753125 -44.80453125 98.0615625 -44.08203125 96.9140625 C-43.42203125 96.9140625 -42.76203125 96.9140625 -42.08203125 96.9140625 C-41.98921875 96.39457031 -41.89640625 95.87507813 -41.80078125 95.33984375 C-40.63763695 91.41423173 -38.5569254 87.89669891 -36.609375 84.31054688 C-34.43833671 80.14560521 -33.64807365 76.54352998 -33.08203125 71.9140625 C-59.21164831 73.8986243 -59.21164831 73.8986243 -85.08203125 77.9140625 C-86.83842137 78.25062836 -88.5949392 78.58652826 -90.3515625 78.921875 C-99.69833032 80.69578174 -99.69833032 80.69578174 -108.91796875 83.015625 C-116.22691817 85.0910057 -121.31438965 83.81448033 -128.08203125 80.9140625 C-128.08203125 80.2540625 -128.08203125 79.5940625 -128.08203125 78.9140625 C-128.63890625 78.8315625 -129.19578125 78.7490625 -129.76953125 78.6640625 C-132.81881044 77.67510709 -134.73393088 76.06648784 -137.08203125 73.9140625 C-137.08203125 73.2540625 -137.08203125 72.5940625 -137.08203125 71.9140625 C-137.91734375 71.5428125 -137.91734375 71.5428125 -138.76953125 71.1640625 C-144.02845293 68.32140213 -148.20375566 64.73363768 -150.08203125 58.9140625 C-150.39938696 54.88918611 -150.32011223 50.94159909 -150.08203125 46.9140625 C-148.76203125 46.2540625 -147.44203125 45.5940625 -146.08203125 44.9140625 C-145.2621875 45.61273438 -144.44234375 46.31140625 -143.59765625 47.03125 C-142.50929164 47.95073045 -141.4207401 48.86998968 -140.33203125 49.7890625 C-139.79320312 50.24925781 -139.254375 50.70945313 -138.69921875 51.18359375 C-130.78276894 57.84499664 -123.86163556 58.08868815 -113.83203125 58.0390625 C-112.38570312 58.03507446 -112.38570312 58.03507446 -110.91015625 58.03100586 C-104.62537792 57.99017547 -98.35760341 57.81845842 -92.08203125 57.4765625 C-91.35983398 57.43740723 -90.63763672 57.39825195 -89.89355469 57.35791016 C-87.00365515 57.17925933 -84.18222446 56.93200463 -81.33081055 56.42138672 C-77.67242461 55.85009898 -74.044227 55.64866883 -70.3515625 55.48046875 C-61.10629073 54.99647773 -51.95695924 53.96421327 -42.76953125 52.8515625 C-40.42858356 52.57111257 -38.08748087 52.29213282 -35.74604797 52.01576233 C-34.30888158 51.84584581 -32.87200012 51.67349494 -31.43547058 51.49827576 C-28.27641744 51.12217981 -25.27210071 50.9140625 -22.08203125 50.9140625 C-22.29555849 46.09340712 -22.52610387 41.27396074 -22.77172852 36.45483398 C-22.85278768 34.81898594 -22.92937766 33.18290956 -23.0012207 31.54663086 C-23.52404997 18.94630038 -23.52404997 18.94630038 -27.08203125 6.9140625 C-27.74203125 6.9140625 -28.40203125 6.9140625 -29.08203125 6.9140625 C-29.08203125 6.2540625 -29.08203125 5.5940625 -29.08203125 4.9140625 C-29.74203125 4.9140625 -30.40203125 4.9140625 -31.08203125 4.9140625 C-31.08203125 4.2540625 -31.08203125 3.5940625 -31.08203125 2.9140625 C-31.68015625 2.7696875 -32.27828125 2.6253125 -32.89453125 2.4765625 C-34.64353529 2.0268186 -36.36880148 1.48513909 -38.08203125 0.9140625 C-38.08203125 -1.0659375 -38.08203125 -3.0459375 -38.08203125 -5.0859375 C-23.35997298 -11.39152496 -13.67753029 -7.15741728 0 0 Z " fill="#F7F4F7" transform="translate(156.08203125,13.0859375)"/>
</svg>
